<svg version="1.1" xmlns="http://www.w3.org/2000/svg" viewBox="0 0 602.2609722018242 342.1622264332698" width="602.2609722018242" height="342.1622264332698">
  <!-- svg-source:excalidraw -->
  
  <defs>
    <style class="style-fonts">
      @font-face {
        font-family: "Virgil";
        src: url("https://excalidraw.com/Virgil.woff2");
      }
      @font-face {
        font-family: "Cascadia";
        src: url("https://excalidraw.com/Cascadia.woff2");
      }
      @font-face {
        font-family: "Assistant";
        src: url("https://excalidraw.com/Assistant-Regular.woff2");
      }
    </style>
    
  </defs>
  <rect x="0" y="0" width="602.2609722018242" height="342.1622264332698" fill="#ffffff"></rect><g transform="translate(10.563543862132747 10) rotate(0 32.5 16)"><text x="0" y="24.52" font-family="Virgil, Segoe UI Emoji" font-size="20px" fill="#000000" text-anchor="start" style="white-space: pre;" direction="ltr" dominant-baseline="alphabetic">Column</text></g><g stroke-linecap="round" transform="translate(50.56354386213275 210.2966106423362) rotate(0 20 49.99999999999994)"><path d="M0 0 C0 0, 0 0, 0 0 M0 0 C0 0, 0 0, 0 0 M-0.26 6.4 C1.21 4.5, 3.57 1.61, 4.99 0.36 M-0.26 6.4 C1.42 4.31, 3.88 2.39, 4.99 0.36 M0.13 12.04 C3.65 7.97, 5.98 5.81, 10.63 -0.03 M0.13 12.04 C3.67 8.02, 8.22 2.47, 10.63 -0.03 M-0.13 18.44 C1.65 13.41, 7.91 12.95, 15.62 0.33 M-0.13 18.44 C5.17 11.2, 12.19 3.15, 15.62 0.33 M0.27 24.08 C7.51 17.88, 14.9 8.04, 21.26 -0.07 M0.27 24.08 C4.51 19.49, 9.61 14.82, 21.26 -0.07 M0 30.48 C6.41 20.45, 15.25 15.1, 26.25 0.29 M0 30.48 C5.22 24.34, 10.96 15.8, 26.25 0.29 M-0.26 36.88 C10.75 24.36, 23.98 9.86, 31.89 -0.1 M-0.26 36.88 C12.49 22.31, 24.62 8.03, 31.89 -0.1 M0.14 42.52 C11.4 29.65, 24.8 13.92, 36.88 0.26 M0.14 42.52 C10.91 29.71, 21.74 17.35, 36.88 0.26 M-0.12 48.92 C15.64 30.69, 31.42 12.45, 41.21 1.37 M-0.12 48.92 C9.34 37.66, 19.36 27.01, 41.21 1.37 M0.27 54.56 C13.55 37.2, 30.6 18.36, 41.6 7.01 M0.27 54.56 C10.21 43.8, 20.79 30.83, 41.6 7.01 M0.01 60.96 C13.85 43.89, 31.03 26.13, 41.34 13.41 M0.01 60.96 C11.89 47.74, 22.48 35.24, 41.34 13.41 M-0.25 67.36 C6.69 59.54, 14.79 46.69, 41.08 19.81 M-0.25 67.36 C14.4 49.96, 28.48 32.38, 41.08 19.81 M0.14 73 C14.62 57.3, 28.65 40.33, 41.47 25.45 M0.14 73 C13.43 57.34, 26.46 42.09, 41.47 25.45 M-0.12 79.4 C15.75 63.43, 30.8 47.19, 41.21 31.85 M-0.12 79.4 C14.1 63.49, 27.84 45.84, 41.21 31.85 M0.28 85.04 C9.83 74.12, 20.45 64, 41.61 37.49 M0.28 85.04 C12.09 71.47, 25.3 56.94, 41.61 37.49 M0.01 91.44 C17.52 72.49, 34.52 52.23, 41.35 43.89 M0.01 91.44 C11.82 77.75, 23.12 65.66, 41.35 43.89 M-0.25 97.84 C9.03 86, 16.09 76.54, 41.08 50.29 M-0.25 97.84 C13.94 81.49, 27.54 64.94, 41.08 50.29 M2.12 101.22 C13.28 86.21, 27.54 70.35, 41.48 55.93 M2.12 101.22 C13.55 86.63, 27.69 72.89, 41.48 55.93 M7.1 101.58 C19.34 87.96, 35.09 69.68, 41.22 62.33 M7.1 101.58 C15.39 92.63, 23.89 81.91, 41.22 62.33 M12.09 101.94 C19.97 94.4, 24.36 86.58, 41.61 67.97 M12.09 101.94 C23.36 88.78, 34.9 75.2, 41.61 67.97 M17.73 101.54 C27.07 91.04, 35.18 78.35, 41.35 74.37 M17.73 101.54 C25.19 91.92, 35.29 82.27, 41.35 74.37 M22.72 101.9 C28.68 96.92, 32.69 92.56, 41.09 80.77 M22.72 101.9 C28.04 95.77, 31.22 90.28, 41.09 80.77 M28.36 101.51 C33.64 96.54, 38.78 90.95, 41.48 86.41 M28.36 101.51 C33.27 96.5, 38.78 90.65, 41.48 86.41 M33.35 101.87 C36.37 98.02, 39.24 95.74, 41.22 92.81 M33.35 101.87 C35.79 99.69, 38.47 96.62, 41.22 92.81 M0.3 100.26 C0.3 100.26, 0.3 100.26, 0.3 100.26 M0.3 100.26 C0.3 100.26, 0.3 100.26, 0.3 100.26 M5.94 99.86 C5.11 98.22, 3.36 97.74, -0.1 94.62 M5.94 99.86 C4.44 98.33, 2.64 97.37, -0.1 94.62 M12.34 100.13 C10.09 96.73, 7.96 94.16, 0.26 89.63 M12.34 100.13 C8.92 97.19, 6.34 95.13, 0.26 89.63 M17.98 99.73 C13.12 94.49, 7.05 90.33, -0.13 83.99 M17.98 99.73 C11.64 94.34, 4.19 87.79, -0.13 83.99 M24.38 99.99 C16.61 93, 13.01 88.68, 0.23 79 M24.38 99.99 C16.68 92.62, 8.76 86.61, 0.23 79 M30.78 100.25 C24.19 93.39, 19.16 88.79, -0.17 73.36 M30.78 100.25 C18.86 90.79, 8.01 79.46, -0.17 73.36 M36.42 99.86 C25.37 89.61, 16.27 82.8, 0.19 68.37 M36.42 99.86 C28.33 93.18, 19.74 84.91, 0.19 68.37 M40.55 98.15 C27.04 87.06, 15.8 76.16, -0.2 62.73 M40.55 98.15 C30.73 89.36, 21.29 81.28, -0.2 62.73 M40.16 92.51 C30.72 87.19, 25.1 78.83, 0.16 57.74 M40.16 92.51 C25.47 79.23, 10.35 66.99, 0.16 57.74 M40.52 87.52 C26.75 73.63, 9.41 63.1, -0.24 52.1 M40.52 87.52 C31.75 79.97, 23.95 72.81, -0.24 52.1 M40.12 81.88 C30.41 75.85, 22.78 65.1, 0.12 47.11 M40.12 81.88 C25.31 70.74, 12.14 58.31, 0.12 47.11 M40.48 76.89 C33.1 68.46, 21.76 61.49, -0.27 41.47 M40.48 76.89 C25.84 64.64, 11.24 50.98, -0.27 41.47 M40.84 71.91 C29.95 62.76, 20.22 51.73, 0.09 36.48 M40.84 71.91 C28.24 61.6, 17.18 51.34, 0.09 36.48 M40.45 66.26 C22.56 52.51, 9.34 37.32, -0.3 30.83 M40.45 66.26 C30.15 58.3, 20.02 49.35, -0.3 30.83 M40.81 61.28 C26.84 49.5, 14.26 35.32, 0.06 25.85 M40.81 61.28 C29.41 51.53, 18.02 42.23, 0.06 25.85 M40.42 55.63 C27.18 46.63, 19.24 36.29, -0.34 20.2 M40.42 55.63 C28.19 43.66, 15 32.59, -0.34 20.2 M40.78 50.65 C31.32 44.04, 22.46 35.65, 0.02 15.22 M40.78 50.65 C30.89 42.92, 21.63 34.07, 0.02 15.22 M40.38 45 C28.37 36.12, 17.58 25.03, -0.37 9.57 M40.38 45 C31.58 36.4, 21.81 29.93, -0.37 9.57 M40.74 40.01 C30.31 30.65, 23.15 25.43, -0.01 4.59 M40.74 40.01 C30.82 32.43, 21.43 23.99, -0.01 4.59 M40.35 34.37 C30.26 24.97, 24.07 18.68, 0.35 -0.4 M40.35 34.37 C28.74 24.81, 16.74 13.8, 0.35 -0.4 M40.71 29.38 C31.78 20.97, 22.13 11.56, 6.74 -0.14 M40.71 29.38 C32.33 21.94, 23.77 14.69, 6.74 -0.14 M40.31 23.74 C28.37 16.23, 20.03 5.8, 12.39 -0.53 M40.31 23.74 C32.34 17.52, 23.89 10.02, 12.39 -0.53 M40.67 18.75 C34.36 12.93, 26.49 7.5, 18.79 -0.27 M40.67 18.75 C34.2 11.65, 26.58 4.59, 18.79 -0.27 M40.28 13.11 C36.54 9.74, 32.6 6.61, 24.43 -0.67 M40.28 13.11 C34.67 9.64, 30.95 4.25, 24.43 -0.67 M40.64 8.12 C36.82 5.75, 34.28 2.4, 30.83 -0.4 M40.64 8.12 C37.87 5.63, 33.7 1.7, 30.83 -0.4 M40.24 2.48 C39.6 2.26, 39.38 1.4, 37.22 -0.14 M40.24 2.48 C39.66 1.75, 38.86 1.12, 37.22 -0.14" stroke="#fa5252" stroke-width="0.5" fill="none"></path><path d="M0 0 C15.03 -0.8, 32.88 -2.37, 40 0 M0 0 C13.89 0.45, 29.93 -0.91, 40 0 M40 0 C38.02 21.01, 38.07 40.8, 40 100 M40 0 C41.37 24.65, 41.21 48.1, 40 100 M40 100 C33.42 101.89, 21.69 99.1, 0 100 M40 100 C26.28 99.75, 11.69 100.82, 0 100 M0 100 C1.18 71.83, -1.02 45.51, 0 0 M0 100 C0.2 62.12, 0.3 22.42, 0 0" stroke="#000000" stroke-width="1" fill="none"></path></g><g stroke-linecap="round"><g transform="translate(11.65594002431385 50.064617520188904) rotate(0 0 140)"><path d="M-0.25 0.71 C-0.64 47.6, -1.41 234.25, -1.19 280.83 M1.82 0.04 C1.67 46.64, 1.05 232.21, 0.89 279.15" stroke="#000000" stroke-width="1" fill="none"></path></g></g><mask></mask><g stroke-linecap="round"><g transform="translate(11.192350828275039 331.32905809987346) rotate(0 290 0)"><path d="M-1.19 0.83 C95.69 0.75, 484.38 0.26, 581.07 0.22 M0.38 0.22 C97.23 -0.31, 483.87 -1.52, 580.68 -1.78" stroke="#000000" stroke-width="1" fill="none"></path></g></g><mask></mask><g stroke-linecap="round" transform="translate(150.56354386213275 110) rotate(0 20 99.99999999999994)"><path d="M0 0 C0 0, 0 0, 0 0 M0 0 C0 0, 0 0, 0 0 M-0.26 6.4 C0.41 4.32, 2.55 3.86, 4.99 0.36 M-0.26 6.4 C1.91 4.41, 3.46 2.11, 4.99 0.36 M0.13 12.04 C3.24 8.78, 5.69 7.5, 10.63 -0.03 M0.13 12.04 C2.42 8.91, 4.13 7.6, 10.63 -0.03 M-0.13 18.44 C6.05 9.53, 11.94 4.03, 15.62 0.33 M-0.13 18.44 C3.29 15.14, 6.9 11.89, 15.62 0.33 M0.27 24.08 C6.23 17.67, 12.15 13.03, 21.26 -0.07 M0.27 24.08 C7.72 15.34, 14.01 7.79, 21.26 -0.07 M0 30.48 C10.5 18.14, 21.12 6.55, 26.25 0.29 M0 30.48 C6.7 23.02, 12.73 16.66, 26.25 0.29 M-0.26 36.88 C12.02 25.71, 20.67 12.98, 31.89 -0.1 M-0.26 36.88 C9.21 25.2, 19.71 14.51, 31.89 -0.1 M0.14 42.52 C11.07 30.26, 21.13 17.93, 36.88 0.26 M0.14 42.52 C7.83 34.22, 14.55 25.91, 36.88 0.26 M-0.12 48.92 C7.94 38.23, 17.61 28.48, 41.21 1.37 M-0.12 48.92 C11.16 35.27, 21.75 23.6, 41.21 1.37 M0.27 54.56 C8.12 43.88, 19.63 34.46, 41.6 7.01 M0.27 54.56 C10.53 42.14, 20.82 31.35, 41.6 7.01 M0.01 60.96 C9.75 50.09, 20.07 36.93, 41.34 13.41 M0.01 60.96 C8.48 50.31, 18.36 40.31, 41.34 13.41 M-0.25 67.36 C9.66 55.51, 18.92 42.46, 41.08 19.81 M-0.25 67.36 C8.69 56.08, 19.16 44.71, 41.08 19.81 M0.14 73 C14.37 55.44, 29.86 36.93, 41.47 25.45 M0.14 73 C14.28 57.51, 28.55 41.48, 41.47 25.45 M-0.12 79.4 C16.73 61.15, 33.54 41.42, 41.21 31.85 M-0.12 79.4 C8.1 69, 17.82 59.26, 41.21 31.85 M0.28 85.04 C13.25 67.61, 29.43 53.08, 41.61 37.49 M0.28 85.04 C11.61 73.03, 21.83 60.73, 41.61 37.49 M0.01 91.44 C11.28 80.11, 20.31 67.72, 41.35 43.89 M0.01 91.44 C15.9 73.08, 31.8 53.55, 41.35 43.89 M-0.25 97.84 C11.6 85.81, 20.64 73.03, 41.08 50.29 M-0.25 97.84 C10.07 85.74, 19.36 75.13, 41.08 50.29 M0.15 103.48 C9.43 90.8, 18.63 83.09, 41.48 55.93 M0.15 103.48 C14.56 85.55, 30.83 69.34, 41.48 55.93 M-0.11 109.88 C8.22 98.62, 20.34 87.63, 41.22 62.33 M-0.11 109.88 C11.69 96.27, 24.56 81.08, 41.22 62.33 M0.28 115.52 C14.46 100.67, 25.8 86.3, 41.61 67.97 M0.28 115.52 C11.09 103, 22.07 89.69, 41.61 67.97 M0.02 121.92 C8.87 110.01, 17.45 103.28, 41.35 74.37 M0.02 121.92 C14.56 107.49, 26.99 92.05, 41.35 74.37 M-0.24 128.32 C14.08 113.32, 26.69 94.05, 41.09 80.77 M-0.24 128.32 C8.48 118.02, 18.86 107.33, 41.09 80.77 M0.15 133.96 C12.57 121.12, 23.56 109.43, 41.48 86.41 M0.15 133.96 C15.36 115.68, 31.15 97.46, 41.48 86.41 M-0.11 140.36 C14.15 125.8, 27.83 111.97, 41.22 92.81 M-0.11 140.36 C13.53 125.18, 26.43 109.41, 41.22 92.81 M0.29 146 C12.2 134.96, 21.2 121.53, 41.62 98.45 M0.29 146 C10.47 135.45, 19.02 125.4, 41.62 98.45 M0.02 152.4 C13.84 140.11, 24.41 122.9, 41.36 104.85 M0.02 152.4 C9.04 143.26, 17.71 132, 41.36 104.85 M-0.24 158.8 C14.92 143.01, 28.91 123.86, 41.09 111.25 M-0.24 158.8 C11.57 144.97, 25.07 129.52, 41.09 111.25 M0.16 164.44 C10.75 149.07, 25.39 137.5, 41.49 116.89 M0.16 164.44 C12.37 151.64, 23.28 136.15, 41.49 116.89 M-0.1 170.84 C14.57 153.84, 28.67 135.44, 41.23 123.29 M-0.1 170.84 C10.06 159.82, 18.45 149.77, 41.23 123.29 M0.29 176.48 C14.92 159.51, 31.5 140.71, 41.62 128.93 M0.29 176.48 C16.56 159.14, 30.88 140.58, 41.62 128.93 M0.03 182.88 C11.81 169.21, 27.04 152.84, 41.36 135.33 M0.03 182.88 C12.28 168.68, 24.44 155.16, 41.36 135.33 M-0.23 189.27 C14.22 170.41, 32.28 152.1, 41.1 141.73 M-0.23 189.27 C14.25 172.07, 30.12 154.42, 41.1 141.73 M0.16 194.92 C15.1 177.61, 31.68 158, 41.49 147.37 M0.16 194.92 C13.71 179.28, 26.96 163.64, 41.49 147.37 M0.56 200.56 C8.36 189.45, 16.41 180.4, 41.23 153.77 M0.56 200.56 C10.81 189.17, 21.45 177.1, 41.23 153.77 M6.2 200.17 C18.1 187.96, 26.54 176.28, 41.63 159.41 M6.2 200.17 C15.05 190.17, 25.96 178.33, 41.63 159.41 M11.19 200.53 C19.55 190.96, 28.39 180.53, 41.37 165.81 M11.19 200.53 C20.29 190.42, 28.14 181.52, 41.37 165.81 M16.17 200.89 C23.16 192.54, 31.95 181.93, 41.1 172.21 M16.17 200.89 C26.12 189.75, 33.37 179.63, 41.1 172.21 M21.82 200.49 C28.71 193.05, 34.85 187.63, 41.5 177.85 M21.82 200.49 C28.61 192.83, 33.78 186.82, 41.5 177.85 M26.8 200.85 C31.35 194.76, 36.78 188.16, 41.24 184.25 M26.8 200.85 C29.73 197.85, 32.17 193.98, 41.24 184.25 M32.45 200.46 C34.62 195.54, 40.23 191.81, 41.63 189.89 M32.45 200.46 C34.92 197.42, 38.79 193.86, 41.63 189.89 M37.43 200.82 C38.74 199.28, 39.98 197.91, 41.37 196.29 M37.43 200.82 C38.69 199.29, 39.75 198.5, 41.37 196.29 M-0.16 199.86 C-0.16 199.86, -0.16 199.86, -0.16 199.86 M-0.16 199.86 C-0.16 199.86, -0.16 199.86, -0.16 199.86 M6.24 200.12 C4.48 197.65, 2.2 195.67, 0.2 194.87 M6.24 200.12 C4.52 198.39, 2.52 197.48, 0.2 194.87 M11.88 199.73 C9.03 195.87, 4.58 191.67, -0.19 189.23 M11.88 199.73 C9.84 197.55, 6.74 195.29, -0.19 189.23 M18.28 199.99 C13.99 196.74, 10.17 192.91, 0.17 184.24 M18.28 199.99 C13.4 194.87, 8.36 191.46, 0.17 184.24 M24.68 200.25 C18.43 193.8, 9.66 186.33, -0.23 178.6 M24.68 200.25 C15.72 192.87, 7.67 184.88, -0.23 178.6 M30.32 199.86 C18.35 192.86, 9.91 184.25, 0.13 173.61 M30.32 199.86 C23.29 194.16, 17.09 188.61, 0.13 173.61 M36.72 200.12 C23.93 187.25, 9.85 177.56, -0.26 167.97 M36.72 200.12 C25.62 190.88, 16.32 182.58, -0.26 167.97 M40.85 198.41 C27.13 188.13, 15.1 173.83, 0.1 162.98 M40.85 198.41 C32.78 190.92, 25.47 184.74, 0.1 162.98 M41.21 193.42 C27.25 183.93, 15.5 172.09, -0.3 157.34 M41.21 193.42 C31.87 185.57, 21.13 175.72, -0.3 157.34 M40.82 187.78 C29.6 176.7, 14.5 167.63, 0.06 152.35 M40.82 187.78 C30.12 178.34, 20.27 170.05, 0.06 152.35 M41.18 182.79 C30.24 171.16, 18.7 162.19, -0.33 146.71 M41.18 182.79 C24.84 169.68, 10 157.67, -0.33 146.71 M40.78 177.15 C31.26 169.62, 22.61 160.74, 0.03 141.72 M40.78 177.15 C32.39 169.5, 24.54 162.45, 0.03 141.72 M41.14 172.16 C28.1 157.86, 11.96 146.31, -0.37 136.08 M41.14 172.16 C29.1 161.75, 16.61 149.12, -0.37 136.08 M41.5 167.18 C26.13 155.21, 15.84 141.67, -0.01 131.09 M41.5 167.18 C33.72 159.22, 24.58 152.11, -0.01 131.09 M41.11 161.53 C24.72 148.42, 7.12 133.53, 0.35 126.11 M41.11 161.53 C30.56 153.86, 20.78 144.95, 0.35 126.11 M41.47 156.55 C28.7 146.65, 14.48 134.51, -0.04 120.46 M41.47 156.55 C32.85 149.6, 24.07 141.21, -0.04 120.46 M41.07 150.9 C30.6 139.94, 17.94 131.31, 0.32 115.48 M41.07 150.9 C32.84 145.02, 23.89 137.15, 0.32 115.48 M41.43 145.92 C27.35 134.89, 13.93 122.68, -0.08 109.83 M41.43 145.92 C29.87 136.81, 19.66 127.2, -0.08 109.83 M41.04 140.27 C32.36 131.37, 23.16 121.76, 0.28 104.85 M41.04 140.27 C24.65 127.08, 9.11 112.95, 0.28 104.85 M41.4 135.29 C29.74 124.97, 19.77 119.03, -0.11 99.2 M41.4 135.29 C30.27 127.13, 22 118.26, -0.11 99.2 M41 129.64 C32.36 122.68, 21.54 112.57, 0.25 94.22 M41 129.64 C30.35 121.21, 17.78 110.55, 0.25 94.22 M41.36 124.66 C27.6 110.99, 15.36 103.42, -0.14 88.57 M41.36 124.66 C29.33 113.23, 15.3 103.32, -0.14 88.57 M40.97 119.01 C26.87 106.89, 9.99 91.52, 0.22 83.59 M40.97 119.01 C29.56 109.59, 19.96 100.71, 0.22 83.59 M41.33 114.03 C27.04 101.51, 13.45 88.61, -0.18 77.94 M41.33 114.03 C30.44 104.84, 20.64 96.03, -0.18 77.94 M40.94 108.38 C25.59 95.07, 7.39 81.28, 0.18 72.96 M40.94 108.38 C31.62 101.28, 22.06 93.79, 0.18 72.96 M41.3 103.4 C27.64 90.22, 14.25 77.62, -0.21 67.31 M41.3 103.4 C26.69 89.7, 10.18 77.22, -0.21 67.31 M40.9 97.75 C32.2 90.53, 22.75 79.8, 0.15 62.33 M40.9 97.75 C24.18 83.64, 8.68 71.24, 0.15 62.33 M41.26 92.77 C32.87 83.68, 20.33 74.35, -0.25 56.68 M41.26 92.77 C26.25 79.78, 12.32 68.83, -0.25 56.68 M40.87 87.12 C26.42 75.11, 17.14 64, 0.11 51.7 M40.87 87.12 C31.49 78.35, 19.76 70.65, 0.11 51.7 M41.23 82.14 C27.43 67.98, 13.12 56.19, -0.28 46.05 M41.23 82.14 C26.3 68.74, 9.82 55.66, -0.28 46.05 M40.83 76.49 C27.99 62.39, 12.4 50, 0.08 41.07 M40.83 76.49 C31.03 67.74, 19.98 57.82, 0.08 41.07 M41.19 71.51 C23.35 56.44, 8.78 45.35, -0.32 35.42 M41.19 71.51 C28.09 61.14, 16.32 49.05, -0.32 35.42 M40.8 65.86 C31.61 57.86, 21.61 48.42, 0.04 30.44 M40.8 65.86 C27.91 56.21, 16.21 45.35, 0.04 30.44 M41.16 60.88 C26.61 47.58, 7.06 31.25, -0.35 24.79 M41.16 60.88 C32.13 53.72, 24.45 46.94, -0.35 24.79 M41.52 55.89 C27.57 43.14, 17.08 34.71, 0.01 19.81 M41.52 55.89 C31.95 46.3, 22.08 38.77, 0.01 19.81 M41.12 50.25 C26.62 37.7, 9.87 25.27, 0.37 14.82 M41.12 50.25 C30.07 41.85, 20.33 33.27, 0.37 14.82 M41.48 45.26 C28.21 33.11, 18.75 25.2, -0.03 9.18 M41.48 45.26 C32.27 37.61, 23.08 29.56, -0.03 9.18 M41.09 39.62 C29.04 29.22, 12.8 16.56, 0.33 4.19 M41.09 39.62 C31 30.95, 19.59 21.57, 0.33 4.19 M41.45 34.63 C28.08 20.65, 12.14 6.62, 0.69 -0.8 M41.45 34.63 C29.82 23.74, 18.29 13.82, 0.69 -0.8 M41.05 28.99 C33.74 22.5, 26.4 14.22, 7.09 -0.54 M41.05 28.99 C31.19 20.71, 23.31 13.72, 7.09 -0.54 M41.41 24 C34.16 17.85, 22.99 7.48, 12.74 -0.93 M41.41 24 C35.98 18.63, 29.91 13.52, 12.74 -0.93 M41.02 18.36 C31.4 12.15, 26.7 4.38, 19.13 -0.67 M41.02 18.36 C36.8 14.17, 29.73 9.17, 19.13 -0.67 M41.38 13.37 C35.76 11.2, 32.93 6.13, 24.78 -1.06 M41.38 13.37 C37.47 10, 33.82 5.17, 24.78 -1.06 M40.98 7.73 C39.07 4.9, 36.14 3.48, 31.17 -0.8 M40.98 7.73 C38.41 5.33, 34.81 2.88, 31.17 -0.8 M41.34 2.74 C40.38 2.1, 39.1 0.92, 37.57 -0.54 M41.34 2.74 C40 1.58, 38.4 0.48, 37.57 -0.54" stroke="#15aabf" stroke-width="0.5" fill="none"></path><path d="M0 0 C8.4 -2.13, 17.1 0.4, 40 0 M0 0 C7.71 -0.47, 17.32 -0.45, 40 0 M40 0 C40.29 48.04, 39.74 94.87, 40 200 M40 0 C38.77 55.08, 39.05 107.57, 40 200 M40 200 C30.86 201.91, 19.73 201.78, 0 200 M40 200 C25.45 200.86, 9.69 199.76, 0 200 M0 200 C-1.3 152.2, -0.79 104.38, 0 0 M0 200 C-1.84 159.76, -1.89 116.99, 0 0" stroke="#000000" stroke-width="1" fill="none"></path></g><g stroke-linecap="round" transform="translate(250.56354386213297 170) rotate(0 20 69.99999999999994)"><path d="M0 0 C0 0, 0 0, 0 0 M0 0 C0 0, 0 0, 0 0 M-0.26 6.4 C1.15 5.58, 2.94 2.86, 4.99 0.36 M-0.26 6.4 C0.85 4.98, 2.45 3.14, 4.99 0.36 M0.13 12.04 C4.56 8.9, 5.87 2.21, 10.63 -0.03 M0.13 12.04 C3.2 8.66, 8.08 4.6, 10.63 -0.03 M-0.13 18.44 C4.77 12.63, 8.02 7.21, 15.62 0.33 M-0.13 18.44 C4.3 14.71, 6.93 8.82, 15.62 0.33 M0.27 24.08 C6.42 19.27, 12.4 10.67, 21.26 -0.07 M0.27 24.08 C4.91 18.17, 11.91 10.78, 21.26 -0.07 M0 30.48 C11.84 17.23, 18.79 8.75, 26.25 0.29 M0 30.48 C7.58 22.61, 14.28 15.11, 26.25 0.29 M-0.26 36.88 C11.61 23.39, 23.76 9.45, 31.89 -0.1 M-0.26 36.88 C7.95 28.26, 14.71 19.86, 31.89 -0.1 M0.14 42.52 C11.17 29.4, 23.16 15.08, 36.88 0.26 M0.14 42.52 C10.46 30.57, 20.88 16.77, 36.88 0.26 M-0.12 48.92 C12.56 34.44, 26.77 18.85, 40.55 2.13 M-0.12 48.92 C13.88 33.21, 27.26 15.92, 40.55 2.13 M0.27 54.56 C14.16 40.9, 23.87 27.9, 40.29 8.52 M0.27 54.56 C11.54 42.41, 22.49 28.36, 40.29 8.52 M0.01 60.96 C8.37 50.04, 18.41 35.82, 40.69 14.17 M0.01 60.96 C14.87 44.51, 27.09 30.27, 40.69 14.17 M-0.25 67.36 C11.83 50.99, 23.49 39.63, 40.42 20.56 M-0.25 67.36 C15.73 49.45, 30.99 32.61, 40.42 20.56 M0.14 73 C15.82 53.76, 32.42 38.09, 40.82 26.21 M0.14 73 C9.94 62.58, 19.69 51.7, 40.82 26.21 M-0.12 79.4 C16.8 60.92, 30.11 40.98, 40.56 32.61 M-0.12 79.4 C15.62 62.23, 31.51 43.98, 40.56 32.61 M0.28 85.04 C12.19 73.39, 22.44 61.26, 40.3 39 M0.28 85.04 C11.35 72.6, 21.99 58.63, 40.3 39 M0.01 91.44 C11.64 77.25, 26.33 61.25, 40.69 44.65 M0.01 91.44 C10.28 78.04, 21.56 66.83, 40.69 44.65 M-0.25 97.84 C8.32 86.72, 16.22 77.61, 40.43 51.04 M-0.25 97.84 C10.16 85.75, 20.29 73.64, 40.43 51.04 M0.15 103.48 C15.83 87.11, 33.2 69.09, 40.82 56.69 M0.15 103.48 C12.6 91.13, 22.64 76.69, 40.82 56.69 M-0.11 109.88 C15.87 93.11, 28.44 75.91, 40.56 63.09 M-0.11 109.88 C15.07 91.99, 29.9 76.4, 40.56 63.09 M0.28 115.52 C12.8 101.33, 24.35 88.49, 40.3 69.48 M0.28 115.52 C9.81 103.96, 18.31 94.25, 40.3 69.48 M0.02 121.92 C15.12 106.76, 30.17 86.65, 40.69 75.13 M0.02 121.92 C11.32 108.82, 23.29 94.35, 40.69 75.13 M-0.24 128.32 C12.46 110.09, 26.45 96.38, 40.43 81.52 M-0.24 128.32 C8.41 119.38, 16.43 109.83, 40.43 81.52 M0.15 133.96 C11.08 123.57, 20.5 113.13, 40.83 87.17 M0.15 133.96 C14.2 117.61, 29.38 100.61, 40.83 87.17 M-0.11 140.36 C11.95 129.65, 21.12 115.26, 40.57 93.56 M-0.11 140.36 C8.83 129.14, 18.01 119.82, 40.57 93.56 M5.53 139.96 C14.59 128.88, 22.29 116.19, 40.31 99.96 M5.53 139.96 C12.98 131.29, 19.56 123.76, 40.31 99.96 M10.52 140.32 C17.47 130.15, 22.95 123.33, 40.7 105.61 M10.52 140.32 C17.32 131.81, 24.28 124.01, 40.7 105.61 M16.16 139.93 C21.24 131.88, 28.41 126.29, 40.44 112 M16.16 139.93 C23.92 131.04, 30.94 122.91, 40.44 112 M21.15 140.29 C29.71 133.18, 36.14 123.44, 40.83 117.65 M21.15 140.29 C25.36 133.43, 31.69 128.16, 40.83 117.65 M26.79 139.89 C30.45 133.23, 33.68 129.25, 40.57 124.04 M26.79 139.89 C29.67 136.21, 33.33 133.4, 40.57 124.04 M31.78 140.25 C34.76 137.16, 39.27 132.03, 40.31 130.44 M31.78 140.25 C33.92 137, 36.7 134.9, 40.31 130.44 M37.42 139.86 C38.26 139.14, 38.95 137.79, 40.7 136.09 M37.42 139.86 C38.48 138.7, 39.82 137.55, 40.7 136.09 M0.11 140.1 C0.11 140.1, 0.11 140.1, 0.11 140.1 M0.11 140.1 C0.11 140.1, 0.11 140.1, 0.11 140.1 M5.76 139.7 C3.75 138.43, 2.74 137.28, -0.28 134.46 M5.76 139.7 C3.42 137.55, 1.73 135.64, -0.28 134.46 M12.16 139.97 C8.77 136.5, 5.49 133.09, 0.08 129.47 M12.16 139.97 C9.67 137.36, 5.43 135.02, 0.08 129.47 M18.55 140.23 C13.7 133.97, 6.53 127.78, -0.31 123.83 M18.55 140.23 C13.5 136.26, 9.42 132.85, -0.31 123.83 M24.2 139.83 C17.76 133.41, 8.9 127.11, 0.05 118.84 M24.2 139.83 C16.13 132.91, 6.87 125.33, 0.05 118.84 M30.59 140.09 C23.86 135.32, 17.92 129.73, -0.35 113.2 M30.59 140.09 C18.46 129.43, 5.42 118, -0.35 113.2 M36.24 139.7 C26.81 129.95, 15.35 120.78, 0.01 108.21 M36.24 139.7 C22.33 127.99, 6.87 114.45, 0.01 108.21 M40.37 137.99 C30.09 127.48, 20.74 120.05, 0.37 103.22 M40.37 137.99 C29.32 128.73, 17.92 118.35, 0.37 103.22 M40.73 133.01 C31.92 126.85, 24.22 117.62, -0.02 97.58 M40.73 133.01 C33.04 126.42, 24.88 117.99, -0.02 97.58 M40.34 127.36 C29.73 116.9, 17.02 106.99, 0.34 92.59 M40.34 127.36 C28 116.45, 14.17 102.97, 0.34 92.59 M40.7 122.38 C25.78 108.93, 14.84 97.79, -0.06 86.95 M40.7 122.38 C25.24 109.22, 11.43 95.21, -0.06 86.95 M40.3 116.73 C29.47 104.92, 17.42 95.48, 0.3 81.96 M40.3 116.73 C28.77 108.08, 18.77 97.54, 0.3 81.96 M40.66 111.75 C30.28 100.71, 17.64 92.95, -0.09 76.32 M40.66 111.75 C31.72 104.38, 22.56 96.39, -0.09 76.32 M40.27 106.1 C27.03 94.56, 13.99 85.06, 0.27 71.33 M40.27 106.1 C27.68 95.04, 13.92 82.86, 0.27 71.33 M40.63 101.12 C29.25 90.8, 16.19 79.73, -0.13 65.69 M40.63 101.12 C30.78 92.02, 20.93 84.17, -0.13 65.69 M40.23 95.47 C31.86 90.59, 22.81 81.6, 0.23 60.7 M40.23 95.47 C31.42 88.38, 22.62 79.72, 0.23 60.7 M40.59 90.49 C26.07 78.33, 8.21 63.83, -0.16 55.06 M40.59 90.49 C28.72 79.9, 15.86 68.86, -0.16 55.06 M40.2 84.84 C31.53 75.5, 18.36 65.96, 0.2 50.07 M40.2 84.84 C31.25 77.19, 20.66 67.06, 0.2 50.07 M40.56 79.86 C25.81 68.06, 11.5 56.5, -0.2 44.43 M40.56 79.86 C30.19 71.22, 21.25 63.46, -0.2 44.43 M40.16 74.21 C27.43 66.12, 17.29 56.86, 0.16 39.44 M40.16 74.21 C28.45 63.64, 16.01 52.32, 0.16 39.44 M40.52 69.23 C31.24 60.38, 23.65 53.93, -0.23 33.8 M40.52 69.23 C25.18 57.05, 10.11 42.34, -0.23 33.8 M40.13 63.58 C31.04 55.66, 18.64 48.59, 0.13 28.81 M40.13 63.58 C29.6 53.61, 18.12 43.56, 0.13 28.81 M40.49 58.6 C24.59 43.93, 7.87 30.35, -0.26 23.17 M40.49 58.6 C30.38 48.73, 18.94 39.66, -0.26 23.17 M40.85 53.61 C34.19 44.93, 21.95 37.58, 0.1 18.18 M40.85 53.61 C27.06 41.21, 14.2 29.45, 0.1 18.18 M40.45 47.97 C28.15 39.16, 18.41 31.57, -0.3 12.54 M40.45 47.97 C24.34 34.45, 9.62 21.85, -0.3 12.54 M40.82 42.98 C24.86 30.29, 7.58 15.28, 0.06 7.55 M40.82 42.98 C25.68 29.53, 10.83 18.16, 0.06 7.55 M40.42 37.34 C26.8 25.51, 13.64 15.84, -0.33 1.91 M40.42 37.34 C23.62 23.83, 8.82 10.26, -0.33 1.91 M40.78 32.35 C32.6 26.35, 22.49 18.52, 3.05 -0.45 M40.78 32.35 C28.79 21.81, 15.59 11.8, 3.05 -0.45 M40.39 26.71 C34.07 18.27, 25.98 12.22, 9.44 -0.19 M40.39 26.71 C32.29 20.48, 23.28 13.18, 9.44 -0.19 M40.75 21.72 C34.66 18.9, 29.52 14.55, 15.84 0.07 M40.75 21.72 C33.15 14.39, 23.27 6.94, 15.84 0.07 M40.35 16.08 C33.7 10.08, 25.87 3.92, 21.48 -0.33 M40.35 16.08 C32 9.81, 25.41 4.08, 21.48 -0.33 M40.71 11.09 C38.47 10.26, 35.56 5.02, 27.88 -0.06 M40.71 11.09 C35.16 7.25, 31.35 2.15, 27.88 -0.06 M40.32 5.45 C38.15 3.45, 36.08 2.47, 33.52 -0.46 M40.32 5.45 C38.69 3.98, 36.89 2.13, 33.52 -0.46" stroke="#be4bdb" stroke-width="0.5" fill="none"></path><path d="M0 0 C16.61 1.11, 29.46 -1.44, 40 0 M0 0 C9.68 -0.39, 18.75 -0.3, 40 0 M40 0 C41.91 55.56, 40.43 108.23, 40 140 M40 0 C41.61 46.56, 40.21 95.19, 40 140 M40 140 C24.17 141.79, 11.23 139.65, 0 140 M40 140 C26.03 139.93, 12.98 141.13, 0 140 M0 140 C0.62 99.78, -2.13 60.47, 0 0 M0 140 C0.01 110.12, 0.96 80.62, 0 0" stroke="#000000" stroke-width="1" fill="none"></path></g><g stroke-linecap="round" transform="translate(350.563543862133 150) rotate(0 20 79.99999999999994)"><path d="M0 0 C0 0, 0 0, 0 0 M0 0 C0 0, 0 0, 0 0 M-0.26 6.4 C1.63 4.22, 2.08 3.74, 4.99 0.36 M-0.26 6.4 C1.51 4.3, 3.99 1.93, 4.99 0.36 M0.13 12.04 C1.47 7.17, 6.42 5.37, 10.63 -0.03 M0.13 12.04 C3.4 9.9, 5.27 6.4, 10.63 -0.03 M-0.13 18.44 C1.25 14.91, 5.34 11.32, 15.62 0.33 M-0.13 18.44 C4.46 11.5, 9.58 6.73, 15.62 0.33 M0.27 24.08 C7.31 16.29, 11.85 9.92, 21.26 -0.07 M0.27 24.08 C6.43 17.19, 11.98 12.13, 21.26 -0.07 M0 30.48 C4.76 24.78, 11.89 17.63, 26.25 0.29 M0 30.48 C6.66 23.73, 13.72 16.31, 26.25 0.29 M-0.26 36.88 C11.46 24.1, 21.76 9.71, 31.89 -0.1 M-0.26 36.88 C6.73 28.55, 14.27 20.23, 31.89 -0.1 M0.14 42.52 C10.97 29.29, 25.22 14.6, 36.88 0.26 M0.14 42.52 C11.69 27.6, 24.93 13.51, 36.88 0.26 M-0.12 48.92 C12.13 35.4, 26.36 20.67, 40.55 2.13 M-0.12 48.92 C8.41 37.43, 18.7 26.54, 40.55 2.13 M0.27 54.56 C9.94 43.06, 21.53 29.54, 40.29 8.52 M0.27 54.56 C9.82 42.52, 19.55 30.81, 40.29 8.52 M0.01 60.96 C13.74 41.47, 31.55 24.94, 40.69 14.17 M0.01 60.96 C8.27 51.26, 18.25 40.11, 40.69 14.17 M-0.25 67.36 C9.94 55.73, 24.27 40.73, 40.42 20.56 M-0.25 67.36 C12.35 53.72, 24.83 39, 40.42 20.56 M0.14 73 C13.26 60.26, 23.37 45.69, 40.82 26.21 M0.14 73 C14.58 57.41, 28.29 41.49, 40.82 26.21 M-0.12 79.4 C12.21 61.63, 29.78 44.62, 40.56 32.61 M-0.12 79.4 C12.97 64.66, 24.89 49.5, 40.56 32.61 M0.28 85.04 C9.64 75.11, 20.15 63.22, 40.3 39 M0.28 85.04 C13.64 68.5, 28.1 53.08, 40.3 39 M0.01 91.44 C15.38 74.31, 26.33 59.23, 40.69 44.65 M0.01 91.44 C12.45 77.83, 24.58 63.84, 40.69 44.65 M-0.25 97.84 C10.4 84.83, 22.73 71.81, 40.43 51.04 M-0.25 97.84 C7.84 87.98, 18.23 77.69, 40.43 51.04 M0.15 103.48 C10.63 94.47, 18.07 81.55, 40.82 56.69 M0.15 103.48 C9.02 91.26, 20.21 79.64, 40.82 56.69 M-0.11 109.88 C11.05 95.22, 24.1 81.86, 40.56 63.09 M-0.11 109.88 C14.7 93.99, 29.51 77.07, 40.56 63.09 M0.28 115.52 C11.37 103.73, 22.59 88.66, 40.3 69.48 M0.28 115.52 C11.1 102.82, 24.43 88.92, 40.3 69.48 M0.02 121.92 C9.29 110.04, 17.5 102.97, 40.69 75.13 M0.02 121.92 C15.84 103.44, 31.37 86.11, 40.69 75.13 M-0.24 128.32 C13.61 112.17, 27.93 92.89, 40.43 81.52 M-0.24 128.32 C13.26 112.93, 26.77 97.1, 40.43 81.52 M0.15 133.96 C12.68 121.92, 23.33 107.03, 40.83 87.17 M0.15 133.96 C13.84 118.52, 26.52 103.93, 40.83 87.17 M-0.11 140.36 C12.7 124.54, 23.61 110.87, 40.57 93.56 M-0.11 140.36 C11.25 128, 23.02 114.63, 40.57 93.56 M0.29 146 C12.76 127.74, 26.82 115.12, 40.31 99.96 M0.29 146 C8.92 136.09, 17.31 126.49, 40.31 99.96 M0.02 152.4 C13.58 135.01, 29.11 118.03, 40.7 105.61 M0.02 152.4 C14.88 135.25, 28.18 119.52, 40.7 105.61 M-0.24 158.8 C14.56 142.8, 28.97 124.36, 40.44 112 M-0.24 158.8 C14.47 141.8, 30.21 123.9, 40.44 112 M4.09 159.91 C12.85 149.45, 21.32 139.21, 40.83 117.65 M4.09 159.91 C18.93 143.78, 32.45 128.03, 40.83 117.65 M9.08 160.27 C16.76 149.09, 25.74 141.13, 40.57 124.04 M9.08 160.27 C16.54 152.85, 23.17 144.5, 40.57 124.04 M14.72 159.88 C25.99 147.49, 33.99 138.67, 40.31 130.44 M14.72 159.88 C23.31 150.91, 30.6 140.34, 40.31 130.44 M19.71 160.24 C27.51 149.86, 36.15 141.58, 40.7 136.09 M19.71 160.24 C26.7 153.9, 31.26 145.55, 40.7 136.09 M25.35 159.84 C31.26 156.6, 32.19 148.27, 40.44 142.48 M25.35 159.84 C31.51 154.03, 36.78 147.35, 40.44 142.48 M30.34 160.2 C34.27 156.79, 38.51 152.72, 40.84 148.13 M30.34 160.2 C32.59 157.25, 35.46 153.09, 40.84 148.13 M35.98 159.81 C36.81 158.44, 37.58 157.04, 40.58 154.52 M35.98 159.81 C37.67 157.62, 39.42 156.15, 40.58 154.52 M0.02 160.02 C0.02 160.02, 0.02 160.02, 0.02 160.02 M0.02 160.02 C0.02 160.02, 0.02 160.02, 0.02 160.02 M6.42 160.28 C3.78 158.23, 2.96 156.38, -0.37 154.38 M6.42 160.28 C4.08 158.59, 2.08 157.14, -0.37 154.38 M12.06 159.89 C10.05 158.77, 7.73 154.24, -0.01 149.39 M12.06 159.89 C8.96 157.37, 7.19 155.55, -0.01 149.39 M18.46 160.15 C14.7 156.28, 9.49 149.49, 0.35 144.4 M18.46 160.15 C11.98 155.1, 6.64 150.53, 0.35 144.4 M24.1 159.75 C18.47 153.93, 11.65 150.25, -0.05 138.76 M24.1 159.75 C19.18 155.8, 13.02 150.63, -0.05 138.76 M30.5 160.02 C19.87 149.76, 7.37 143.17, 0.31 133.77 M30.5 160.02 C22.02 151.51, 11.72 144.25, 0.31 133.77 M36.9 160.28 C26.99 151.78, 18.15 141.97, -0.08 128.13 M36.9 160.28 C25.7 149.63, 13.6 140.15, -0.08 128.13 M40.28 157.91 C28.95 145.34, 17.76 134.95, 0.28 123.14 M40.28 157.91 C31.72 149.12, 21.6 142.16, 0.28 123.14 M40.64 152.93 C31.08 143.15, 21.54 136.47, -0.11 117.5 M40.64 152.93 C30.89 144.38, 20.2 136.28, -0.11 117.5 M40.24 147.28 C27.63 137.18, 16.98 129.4, 0.25 112.51 M40.24 147.28 C27.01 135.89, 15.57 125.36, 0.25 112.51 M40.6 142.3 C27.93 133.03, 16.09 121.52, -0.15 106.87 M40.6 142.3 C30.65 133.87, 20.44 126.23, -0.15 106.87 M40.21 136.65 C27.43 125.25, 12.15 112.64, 0.21 101.88 M40.21 136.65 C27.82 125.98, 13.96 113.54, 0.21 101.88 M40.57 131.67 C23.15 118.01, 7.25 103.69, -0.18 96.24 M40.57 131.67 C27.33 120.05, 13.43 108.47, -0.18 96.24 M40.18 126.02 C29.22 118.54, 19.5 107.42, 0.18 91.25 M40.18 126.02 C29.28 117.04, 17.46 107.01, 0.18 91.25 M40.54 121.04 C22.86 105.47, 8.21 93.58, -0.22 85.61 M40.54 121.04 C28.42 110.4, 17.01 99.94, -0.22 85.61 M40.14 115.39 C24.65 103.74, 10.38 91.44, 0.14 80.62 M40.14 115.39 C25.15 101.83, 9.61 89.2, 0.14 80.62 M40.5 110.41 C28.11 102.07, 17.36 89.95, -0.25 74.98 M40.5 110.41 C30.16 100.88, 19.68 93.09, -0.25 74.98 M40.86 105.42 C33.03 98.12, 23.91 87.33, 0.11 69.99 M40.86 105.42 C29.01 95.27, 17.71 85.88, 0.11 69.99 M40.47 99.78 C24.22 89.36, 11.5 75.72, -0.29 64.35 M40.47 99.78 C29.77 89.83, 19.13 81.51, -0.29 64.35 M40.83 94.79 C32.07 87.4, 22.47 80.94, 0.07 59.36 M40.83 94.79 C25.38 80.59, 8.77 66.76, 0.07 59.36 M40.43 89.15 C25.31 76.62, 14.92 67.65, -0.32 53.72 M40.43 89.15 C31.65 80.51, 20.59 72.02, -0.32 53.72 M40.79 84.16 C25.59 73.28, 14.22 58.11, 0.04 48.73 M40.79 84.16 C27.4 72.97, 14.22 60.47, 0.04 48.73 M40.4 78.52 C23.78 64.99, 12.13 52.59, -0.36 43.09 M40.4 78.52 C26.86 67.56, 13.92 55.43, -0.36 43.09 M40.76 73.53 C29.92 65.78, 24.72 57.59, 0 38.1 M40.76 73.53 C25.79 60.35, 9.11 46.4, 0 38.1 M40.36 67.89 C24.69 56.42, 11.18 41.48, 0.36 33.12 M40.36 67.89 C26.67 57.48, 13.87 46.01, 0.36 33.12 M40.72 62.9 C30.58 52.02, 16.39 41.49, -0.03 27.47 M40.72 62.9 C24.23 50.05, 7.95 34.92, -0.03 27.47 M40.33 57.26 C29.55 50.91, 21.88 38.86, 0.33 22.48 M40.33 57.26 C26.37 45.89, 14.49 35.09, 0.33 22.48 M40.69 52.27 C25.08 38.96, 12.44 27.19, -0.07 16.84 M40.69 52.27 C25.01 39.17, 7.84 24.13, -0.07 16.84 M40.29 46.63 C32.23 38.36, 25.61 33.88, 0.29 11.85 M40.29 46.63 C31.71 38.32, 21.24 30.84, 0.29 11.85 M40.65 41.64 C25.18 29.37, 10.6 14.49, -0.1 6.21 M40.65 41.64 C29 31.1, 16.83 20.91, -0.1 6.21 M40.26 36 C27.7 24.62, 18.85 14.79, 0.26 1.22 M40.26 36 C30.4 26.11, 19.5 17.76, 0.26 1.22 M40.62 31.01 C27.5 20.4, 19.06 9.92, 4.39 -0.48 M40.62 31.01 C29.09 21.22, 16.41 10.33, 4.39 -0.48 M40.23 25.37 C33.9 17.57, 26.08 13.02, 10.79 -0.22 M40.23 25.37 C32.98 18.87, 26.14 13.94, 10.79 -0.22 M40.59 20.38 C33.25 12.95, 23.67 3.04, 17.19 0.04 M40.59 20.38 C34.45 16.04, 28.94 11.5, 17.19 0.04 M40.19 14.74 C36.4 11.53, 29.12 4.94, 22.83 -0.35 M40.19 14.74 C35.78 11.44, 32.08 6.1, 22.83 -0.35 M40.55 9.75 C37.1 8.4, 36.67 6.54, 29.23 -0.09 M40.55 9.75 C38.1 7.57, 34.87 5.13, 29.23 -0.09 M40.16 4.11 C39.44 3.01, 38.24 2.5, 34.87 -0.49 M40.16 4.11 C38.83 2.87, 37.26 1.79, 34.87 -0.49" stroke="#228be6" stroke-width="0.5" fill="none"></path><path d="M0 0 C6.78 -1.94, 15.74 -2.06, 40 0 M0 0 C8.55 -0.31, 19.31 1, 40 0 M40 0 C40.13 53.31, 41.47 111.28, 40 160 M40 0 C40.78 63.51, 42.11 126.07, 40 160 M40 160 C26.19 159.62, 10.21 160.74, 0 160 M40 160 C24.45 160.69, 9.99 160.04, 0 160 M0 160 C-2.58 112.02, -2.51 60.37, 0 0 M0 160 C1.06 95.55, 0.15 32.77, 0 0" stroke="#000000" stroke-width="1" fill="none"></path></g><g stroke-linecap="round" transform="translate(450.563543862133 130) rotate(0 20 89.99999999999994)"><path d="M0 0 C0 0, 0 0, 0 0 M0 0 C0 0, 0 0, 0 0 M-0.26 6.4 C1.54 4.4, 4.24 1.2, 4.99 0.36 M-0.26 6.4 C2.01 4.21, 3.77 1.86, 4.99 0.36 M0.13 12.04 C4.71 7.7, 6.75 2.34, 10.63 -0.03 M0.13 12.04 C4.24 7.35, 7.41 2.57, 10.63 -0.03 M-0.13 18.44 C3.44 13.66, 9.79 9.23, 15.62 0.33 M-0.13 18.44 C5.29 12.15, 11.24 5.81, 15.62 0.33 M0.27 24.08 C7.44 15.17, 15.28 3.98, 21.26 -0.07 M0.27 24.08 C8 16.52, 13.6 8.97, 21.26 -0.07 M0 30.48 C5.18 25.48, 10.33 18.92, 26.25 0.29 M0 30.48 C9.04 21.66, 17.23 11.09, 26.25 0.29 M-0.26 36.88 C9.19 24.16, 19.85 13.34, 31.89 -0.1 M-0.26 36.88 C8.8 26.76, 17.49 16.19, 31.89 -0.1 M0.14 42.52 C13.91 27.72, 28.08 10.67, 36.88 0.26 M0.14 42.52 C14.15 26.6, 27.27 11.4, 36.88 0.26 M-0.12 48.92 C15.63 32.84, 27.86 15.04, 40.55 2.13 M-0.12 48.92 C14.1 32.66, 27.6 18.14, 40.55 2.13 M0.27 54.56 C12.56 40.32, 24.26 25.8, 40.29 8.52 M0.27 54.56 C14.56 37.15, 30.51 19.98, 40.29 8.52 M0.01 60.96 C15.16 44.33, 26.94 31.05, 40.69 14.17 M0.01 60.96 C8.74 51.23, 16.81 41.27, 40.69 14.17 M-0.25 67.36 C9.78 57.02, 16.53 49.42, 40.42 20.56 M-0.25 67.36 C10.97 54.65, 20.81 42.63, 40.42 20.56 M0.14 73 C8.31 62.29, 20.19 51.54, 40.82 26.21 M0.14 73 C14.92 56.71, 28.77 40.47, 40.82 26.21 M-0.12 79.4 C14.42 63.32, 25.64 50.61, 40.56 32.61 M-0.12 79.4 C13.84 62.16, 27.93 46.51, 40.56 32.61 M0.28 85.04 C14.35 69.99, 29.93 52.18, 40.3 39 M0.28 85.04 C15.56 68.25, 30.85 50.3, 40.3 39 M0.01 91.44 C11.41 76.12, 24.7 61.28, 40.69 44.65 M0.01 91.44 C7.97 82.19, 17.2 71.6, 40.69 44.65 M-0.25 97.84 C9.91 86.6, 19.52 73.18, 40.43 51.04 M-0.25 97.84 C12.95 84, 23.25 70.16, 40.43 51.04 M0.15 103.48 C14.88 84.77, 29.48 69.29, 40.82 56.69 M0.15 103.48 C15.99 85.77, 30.38 69.88, 40.82 56.69 M-0.11 109.88 C12.4 95.94, 23.57 84.53, 40.56 63.09 M-0.11 109.88 C9.75 99.19, 19.34 87.23, 40.56 63.09 M0.28 115.52 C11.68 101.16, 25.31 86.61, 40.3 69.48 M0.28 115.52 C10.78 104.67, 18.72 93.77, 40.3 69.48 M0.02 121.92 C15.25 106.12, 32.73 86.46, 40.69 75.13 M0.02 121.92 C15.12 105.08, 30.16 87.31, 40.69 75.13 M-0.24 128.32 C6.66 116.87, 17.86 108.57, 40.43 81.52 M-0.24 128.32 C14.73 111.1, 30.61 93.31, 40.43 81.52 M0.15 133.96 C14.05 117.64, 26.67 102.2, 40.83 87.17 M0.15 133.96 C13.29 118.9, 27.47 103.54, 40.83 87.17 M-0.11 140.36 C13.55 123.28, 29.89 104.96, 40.57 93.56 M-0.11 140.36 C9.65 129.51, 20.35 117.34, 40.57 93.56 M0.29 146 C10.68 134.52, 22.84 120.31, 40.31 99.96 M0.29 146 C9.14 135.91, 19.95 124.23, 40.31 99.96 M0.02 152.4 C7.8 142.71, 19.44 132.34, 40.7 105.61 M0.02 152.4 C8.51 142.04, 18.83 130.94, 40.7 105.61 M-0.24 158.8 C10.08 145.52, 21.66 135.49, 40.44 112 M-0.24 158.8 C11.56 145.4, 21.19 134.03, 40.44 112 M0.16 164.44 C14.42 147.61, 32.01 128.11, 40.83 117.65 M0.16 164.44 C8.51 154.74, 16.87 144.69, 40.83 117.65 M-0.1 170.84 C7.03 162.86, 15.55 151.58, 40.57 124.04 M-0.1 170.84 C10.68 158.27, 21.05 146.69, 40.57 124.04 M0.29 176.48 C13.84 161.73, 28.85 143.34, 40.31 130.44 M0.29 176.48 C8.62 165.07, 19.21 155.44, 40.31 130.44 M2 180.61 C15.59 165.58, 27.78 150.69, 40.7 136.09 M2 180.61 C13.79 164.94, 26.87 151.17, 40.7 136.09 M6.98 180.97 C15.3 167.09, 28.47 155.46, 40.44 142.48 M6.98 180.97 C20.53 165.58, 33.3 151.04, 40.44 142.48 M12.63 180.58 C21.11 173, 27.01 164.52, 40.84 148.13 M12.63 180.58 C18.79 172.13, 25.97 163.84, 40.84 148.13 M17.61 180.94 C22.63 172.52, 31.77 165.02, 40.58 154.52 M17.61 180.94 C26.58 171.6, 34.96 160.52, 40.58 154.52 M23.26 180.54 C28.28 172.14, 37.36 167.69, 40.31 160.92 M23.26 180.54 C28.49 174.97, 32.95 169.63, 40.31 160.92 M28.24 180.9 C31.54 177.22, 35.22 171.58, 40.71 166.56 M28.24 180.9 C32.14 175.74, 36.64 171.43, 40.71 166.56 M33.89 180.51 C36.74 179.07, 37.55 174.8, 40.45 172.96 M33.89 180.51 C35.6 178.35, 37.79 176, 40.45 172.96 M38.87 180.87 C39.77 180.25, 40.23 179.1, 40.84 178.61 M38.87 180.87 C39.46 180.07, 40.15 179.33, 40.84 178.61 M-0.07 179.94 C-0.07 179.94, -0.07 179.94, -0.07 179.94 M-0.07 179.94 C-0.07 179.94, -0.07 179.94, -0.07 179.94 M6.33 180.2 C3.49 178.98, 2.24 177.25, 0.29 174.95 M6.33 180.2 C4.08 178.32, 1.8 176.61, 0.29 174.95 M11.97 179.81 C9.11 175.63, 5.22 175.32, -0.1 169.31 M11.97 179.81 C7.47 175.5, 2.69 170.96, -0.1 169.31 M18.37 180.07 C16.08 175.25, 9.74 172.24, 0.26 164.32 M18.37 180.07 C12.31 175.36, 5.98 170.16, 0.26 164.32 M24.01 179.67 C18.32 174.94, 12.74 169.16, -0.14 158.68 M24.01 179.67 C13.96 171.87, 4.46 163.1, -0.14 158.68 M30.41 179.94 C22.5 175.43, 18.2 168.43, 0.22 153.69 M30.41 179.94 C21.78 171.65, 12.46 163.82, 0.22 153.69 M36.81 180.2 C26.7 172.3, 14.24 163.52, -0.17 148.05 M36.81 180.2 C23.25 169.42, 10.01 157.4, -0.17 148.05 M40.19 177.83 C26.22 165.94, 14.85 155.81, 0.19 143.06 M40.19 177.83 C28.79 168.04, 20.36 159.76, 0.19 143.06 M40.55 172.85 C23.51 158.5, 9.8 145.87, -0.21 137.42 M40.55 172.85 C25.67 160.21, 8.88 146.83, -0.21 137.42 M40.15 167.2 C24.78 152.77, 8.48 141.35, 0.15 132.43 M40.15 167.2 C25.64 155.21, 13.06 143.84, 0.15 132.43 M40.51 162.22 C29.58 152.69, 20.32 145.73, -0.24 126.79 M40.51 162.22 C25.06 147.23, 9.3 133.77, -0.24 126.79 M40.87 157.23 C27.29 147.41, 17.68 134.37, 0.12 121.8 M40.87 157.23 C30.95 149.38, 21.49 139.62, 0.12 121.8 M40.48 151.59 C25.58 138.44, 9.44 126.11, -0.28 116.16 M40.48 151.59 C27.36 140.43, 14.93 129.49, -0.28 116.16 M40.84 146.6 C31.07 135.28, 18.36 126.49, 0.08 111.17 M40.84 146.6 C24.24 132.08, 8.99 118.37, 0.08 111.17 M40.44 140.96 C27.35 130.59, 14.06 120.28, -0.31 105.53 M40.44 140.96 C29.29 131.36, 15.55 120.42, -0.31 105.53 M40.8 135.97 C28.31 127.24, 18.81 117.46, 0.05 100.54 M40.8 135.97 C30.83 127.08, 22.89 121, 0.05 100.54 M40.41 130.33 C31.68 122.92, 19.95 113.37, -0.34 94.9 M40.41 130.33 C28.44 120.34, 18.19 109.83, -0.34 94.9 M40.77 125.34 C30.31 113.7, 17.09 102.77, 0.02 89.91 M40.77 125.34 C29.73 115.83, 17.73 105.08, 0.02 89.91 M40.38 119.7 C28.72 107.68, 14.71 95.79, 0.38 84.93 M40.38 119.7 C31.13 112.22, 20.94 103.15, 0.38 84.93 M40.74 114.71 C32.31 105.47, 21.5 94.65, -0.02 79.28 M40.74 114.71 C27.5 104.08, 16.45 93.56, -0.02 79.28 M40.34 109.07 C26.32 95.6, 11.56 84.18, 0.34 74.3 M40.34 109.07 C27.68 99.26, 15.48 88.69, 0.34 74.3 M40.7 104.08 C30.37 95.03, 23.41 87.92, -0.05 68.65 M40.7 104.08 C24.74 90.49, 9.94 77.35, -0.05 68.65 M40.31 98.44 C25.92 83.57, 10.15 73.43, 0.31 63.67 M40.31 98.44 C29.04 88.53, 16.9 77.53, 0.31 63.67 M40.67 93.45 C30.65 84.06, 18.55 70.94, -0.09 58.02 M40.67 93.45 C27.17 82.73, 14.6 72.26, -0.09 58.02 M40.27 87.81 C26.2 74.87, 7.44 58.82, 0.27 53.04 M40.27 87.81 C25.21 75.54, 11.36 62.03, 0.27 53.04 M40.63 82.82 C29.59 72.46, 19.48 65.34, -0.12 47.39 M40.63 82.82 C27.25 70.96, 13.46 59.59, -0.12 47.39 M40.24 77.18 C31.66 66.82, 18.58 59.29, 0.24 42.41 M40.24 77.18 C28.24 66.45, 15.22 54.64, 0.24 42.41 M40.6 72.19 C28.7 59.18, 13.83 45.99, -0.16 36.76 M40.6 72.19 C25.28 59.6, 9.77 46.81, -0.16 36.76 M40.2 66.55 C31.52 58.98, 19.7 48.23, 0.2 31.78 M40.2 66.55 C27.42 56.02, 16.29 45.44, 0.2 31.78 M40.56 61.56 C30.08 50.07, 16.47 40.8, -0.19 26.13 M40.56 61.56 C25.17 49.3, 10.61 34.76, -0.19 26.13 M40.17 55.92 C29.52 47.08, 21.79 39.81, 0.17 21.15 M40.17 55.92 C25.32 41.57, 7.82 29.5, 0.17 21.15 M40.53 50.93 C33.57 45.23, 22.06 34.12, -0.23 15.5 M40.53 50.93 C25.68 38.78, 9.98 26.13, -0.23 15.5 M40.13 45.29 C30.08 36.87, 16.85 25.38, 0.13 10.52 M40.13 45.29 C26.52 34.22, 11.3 21.66, 0.13 10.52 M40.49 40.3 C29.19 31.89, 21.75 21.37, -0.26 4.87 M40.49 40.3 C31.43 31.71, 22.11 24.79, -0.26 4.87 M40.85 35.31 C23.97 20.54, 11.21 8.1, 0.1 -0.11 M40.85 35.31 C32.87 27.88, 23.47 19.91, 0.1 -0.11 M40.46 29.67 C34 21.3, 25.79 14.84, 6.5 0.15 M40.46 29.67 C31.55 22.48, 21.41 12.54, 6.5 0.15 M40.82 24.68 C36.43 19.2, 29.52 16.18, 12.14 -0.25 M40.82 24.68 C28.98 14.01, 17.22 5.34, 12.14 -0.25 M40.43 19.04 C31.48 12.37, 21.98 5.15, 18.54 0.01 M40.43 19.04 C33.73 12.79, 26.09 5.71, 18.54 0.01 M40.79 14.05 C36.76 7.23, 29.79 3.37, 24.18 -0.38 M40.79 14.05 C34.45 8.36, 27.99 4.37, 24.18 -0.38 M40.39 8.41 C38.25 4.88, 33.42 1.56, 30.58 -0.12 M40.39 8.41 C37.87 6.96, 36.25 4.12, 30.58 -0.12 M40.75 3.42 C39.55 2.62, 38.39 1.05, 36.98 0.14 M40.75 3.42 C39.63 2.61, 38.23 1.5, 36.98 0.14" stroke="#fd7e14" stroke-width="0.5" fill="none"></path><path d="M0 0 C12.37 -1.55, 25.63 0.33, 40 0 M0 0 C10.23 0.96, 19.04 0.68, 40 0 M40 0 C40.23 60.13, 41.33 119.72, 40 180 M40 0 C39.76 41.36, 39.79 81.73, 40 180 M40 180 C25.67 180.31, 11.6 178.34, 0 180 M40 180 C29.35 180.52, 18.99 180.77, 0 180 M0 180 C-0.12 122.16, 3.65 64.54, 0 0 M0 180 C-1.51 136.51, -1.39 93.43, 0 0" stroke="#000000" stroke-width="1" fill="none"></path></g></svg>