<svg version="1.1" xmlns="http://www.w3.org/2000/svg" viewBox="0 0 120.68965517241224 89.81518451300622" width="120.68965517241224" height="89.81518451300622">
  <!-- svg-source:excalidraw -->
  
  <defs>
    <style class="style-fonts">
      @font-face {
        font-family: "Virgil";
        src: url("https://unpkg.com/@excalidraw/excalidraw@undefined/dist/excalidraw-assets/Virgil.woff2");
      }
      @font-face {
        font-family: "Cascadia";
        src: url("https://unpkg.com/@excalidraw/excalidraw@undefined/dist/excalidraw-assets/Cascadia.woff2");
      }
      @font-face {
        font-family: "Assistant";
        src: url("https://unpkg.com/@excalidraw/excalidraw@undefined/dist/excalidraw-assets/Assistant-Regular.woff2");
      }
    </style>
    
  </defs>
  <rect x="0" y="0" width="120.68965517241224" height="89.81518451300622" fill="transparent"></rect><g transform="translate(86.62715517241224 24.383410658117327) rotate(2070 14.0625 10)"><text x="0" y="0" font-family="Cascadia, Segoe UI Emoji" font-size="16px" fill="#b0f830" text-anchor="start" style="white-space: pre;" direction="ltr" dominant-baseline="text-before-edge">Vin</text></g><g stroke-linecap="round" transform="translate(39.14408348692734 29.68857668593637) rotate(2070 31.404761904761756 18.387931034482705)"><path d="M9.19 0 C25.99 0, 42.79 0, 53.62 0 C59.74 0, 62.81 3.06, 62.81 9.19 C62.81 15.17, 62.81 21.14, 62.81 27.58 C62.81 33.71, 59.74 36.78, 53.62 36.78 C44.34 36.78, 35.07 36.78, 9.19 36.78 C3.06 36.78, 0 33.71, 0 27.58 C0 20.46, 0 13.34, 0 9.19 C0 3.06, 3.06 0, 9.19 0" stroke="none" stroke-width="0" fill="#ffffff"></path><path d="M9.19 0 C22.38 0, 35.56 0, 53.62 0 M9.19 0 C21.36 0, 33.53 0, 53.62 0 M53.62 0 C59.74 0, 62.81 3.06, 62.81 9.19 M53.62 0 C59.74 0, 62.81 3.06, 62.81 9.19 M62.81 9.19 C62.81 15.95, 62.81 22.71, 62.81 27.58 M62.81 9.19 C62.81 16.44, 62.81 23.68, 62.81 27.58 M62.81 27.58 C62.81 33.71, 59.74 36.78, 53.62 36.78 M62.81 27.58 C62.81 33.71, 59.74 36.78, 53.62 36.78 M53.62 36.78 C36.18 36.78, 18.75 36.78, 9.19 36.78 M53.62 36.78 C40.74 36.78, 27.87 36.78, 9.19 36.78 M9.19 36.78 C3.06 36.78, 0 33.71, 0 27.58 M9.19 36.78 C3.06 36.78, 0 33.71, 0 27.58 M0 27.58 C0 23.13, 0 18.69, 0 9.19 M0 27.58 C0 21.43, 0 15.27, 0 9.19 M0 9.19 C0 3.06, 3.06 0, 9.19 0 M0 9.19 C0 3.06, 3.06 0, 9.19 0" stroke="#ffffff" stroke-width="2" fill="none"></path></g><g transform="translate(46.127155172413154 25.07306583053287) rotate(2070 14.0625 10)"><text x="0" y="0" font-family="Cascadia, Segoe UI Emoji" font-size="16px" fill="#0b7285" text-anchor="start" style="white-space: pre;" direction="ltr" dominant-baseline="text-before-edge">GND</text></g><g transform="translate(66.12715517241588 25.073065830526957) rotate(2070 14.0625 10)"><text x="0" y="0" font-family="Cascadia, Segoe UI Emoji" font-size="16px" fill="#0b7285" text-anchor="start" style="white-space: pre;" direction="ltr" dominant-baseline="text-before-edge">GND</text></g><g stroke-linecap="round" transform="translate(11.716954022956202 10.000000000000227) rotate(3779.9999999999986 8.779643073200418 34.90759225650288)"><path d="M4.39 0 C7 0, 9.61 0, 13.17 0 C16.1 0, 17.56 1.46, 17.56 4.39 C17.56 16.6, 17.56 28.81, 17.56 65.43 C17.56 68.35, 16.1 69.82, 13.17 69.82 C10.99 69.82, 8.81 69.82, 4.39 69.82 C1.46 69.82, 0 68.35, 0 65.43 C0 48.05, 0 30.68, 0 4.39 C0 1.46, 1.46 0, 4.39 0" stroke="none" stroke-width="0" fill="#ff7840"></path><path d="M4.39 0 C7.78 0, 11.16 0, 13.17 0 M4.39 0 C6.25 0, 8.11 0, 13.17 0 M13.17 0 C16.1 0, 17.56 1.46, 17.56 4.39 M13.17 0 C16.1 0, 17.56 1.46, 17.56 4.39 M17.56 4.39 C17.56 17.83, 17.56 31.27, 17.56 65.43 M17.56 4.39 C17.56 27.04, 17.56 49.69, 17.56 65.43 M17.56 65.43 C17.56 68.35, 16.1 69.82, 13.17 69.82 M17.56 65.43 C17.56 68.35, 16.1 69.82, 13.17 69.82 M13.17 69.82 C10.46 69.82, 7.74 69.82, 4.39 69.82 M13.17 69.82 C9.95 69.82, 6.74 69.82, 4.39 69.82 M4.39 69.82 C1.46 69.82, 0 68.35, 0 65.43 M4.39 69.82 C1.46 69.82, 0 68.35, 0 65.43 M0 65.43 C0 44.28, 0 23.14, 0 4.39 M0 65.43 C0 44.78, 0 24.13, 0 4.39 M0 4.39 C0 1.46, 1.46 0, 4.39 0 M0 4.39 C0 1.46, 1.46 0, 4.39 0" stroke="#ffffff" stroke-width="1" fill="none"></path></g><g stroke-linecap="round" transform="translate(31.73994252870591 27.270114942507234) rotate(3779.9999999999986 8.673321234119953 26.266787658802315)"><path d="M4.34 0 C6.5 0, 8.66 0, 13.01 0 C15.9 0, 17.35 1.45, 17.35 4.34 C17.35 19.4, 17.35 34.46, 17.35 48.2 C17.35 51.09, 15.9 52.53, 13.01 52.53 C10.54 52.53, 8.07 52.53, 4.34 52.53 C1.45 52.53, 0 51.09, 0 48.2 C0 38.11, 0 28.03, 0 4.34 C0 1.45, 1.45 0, 4.34 0" stroke="none" stroke-width="0" fill="#ff3030"></path><path d="M4.34 0 C7.54 0, 10.74 0, 13.01 0 M4.34 0 C6.1 0, 7.86 0, 13.01 0 M13.01 0 C15.9 0, 17.35 1.45, 17.35 4.34 M13.01 0 C15.9 0, 17.35 1.45, 17.35 4.34 M17.35 4.34 C17.35 18.13, 17.35 31.92, 17.35 48.2 M17.35 4.34 C17.35 17.23, 17.35 30.12, 17.35 48.2 M17.35 48.2 C17.35 51.09, 15.9 52.53, 13.01 52.53 M17.35 48.2 C17.35 51.09, 15.9 52.53, 13.01 52.53 M13.01 52.53 C9.74 52.53, 6.47 52.53, 4.34 52.53 M13.01 52.53 C10.44 52.53, 7.87 52.53, 4.34 52.53 M4.34 52.53 C1.45 52.53, 0 51.09, 0 48.2 M4.34 52.53 C1.45 52.53, 0 51.09, 0 48.2 M0 48.2 C0 32.93, 0 17.67, 0 4.34 M0 48.2 C0 38.67, 0 29.14, 0 4.34 M0 4.34 C0 1.45, 1.45 0, 4.34 0 M0 4.34 C0 1.45, 1.45 0, 4.34 0" stroke="#ffffff" stroke-width="1" fill="none"></path></g><g transform="translate(1.2500000000001137 20.7303934167428) rotate(2070 18.75 10)"><text x="0" y="0" font-family="Cascadia, Segoe UI Emoji" font-size="16px" fill="#ffffff" text-anchor="start" style="white-space: pre;" direction="ltr" dominant-baseline="text-before-edge">3.3V</text></g><g transform="translate(30.280172413795412 30.105393416738934) rotate(2070 9.375 10)"><text x="0" y="0" font-family="Cascadia, Segoe UI Emoji" font-size="16px" fill="#ffffff" text-anchor="start" style="white-space: pre;" direction="ltr" dominant-baseline="text-before-edge">5V</text></g></svg>