<svg version="1.1" xmlns="http://www.w3.org/2000/svg" viewBox="0 0 601.8633441072498 342.13299588024734" width="601.8633441072498" height="342.13299588024734">
  <!-- svg-source:excalidraw -->
  
  <defs>
    <style class="style-fonts">
      @font-face {
        font-family: "Virgil";
        src: url("https://excalidraw.com/Virgil.woff2");
      }
      @font-face {
        font-family: "Cascadia";
        src: url("https://excalidraw.com/Cascadia.woff2");
      }
      @font-face {
        font-family: "Assistant";
        src: url("https://excalidraw.com/Assistant-Regular.woff2");
      }
    </style>
    
  </defs>
  <rect x="0" y="0" width="601.8633441072498" height="342.13299588024734" fill="#ffffff"></rect><g stroke-linecap="round"><g transform="translate(11.459756311960518 49.76800687785271) rotate(0 0 140)"><path d="M0 -0.35 C0.29 46.19, 0.78 232.86, 0.93 279.77 M-1.46 -1.58 C-1.17 45.1, 0.13 234.37, 0.47 281.18" stroke="#000000" stroke-width="1" fill="none"></path></g></g><mask></mask><g stroke-linecap="round"><g transform="translate(10.996167115921253 331.0324474575382) rotate(0 290 0)"><path d="M0.93 -0.23 C97.74 0.01, 484.26 1.08, 580.87 1.1 M-0.04 -1.4 C96.69 -1.44, 483.68 -0.86, 580.37 -0.44" stroke="#000000" stroke-width="1" fill="none"></path></g></g><mask></mask><g transform="translate(10.367360149778506 10) rotate(0 18.5 16)"><text x="0" y="24.52" font-family="Virgil, Segoe UI Emoji" font-size="20px" fill="#000000" text-anchor="start" style="white-space: pre;" direction="ltr" dominant-baseline="alphabetic">Line</text></g><g stroke-linecap="round" transform="translate(30.367360149778506 190) rotate(0 6.6666666666667425 6.6666666666667425)"><path d="M1.37 2.51 C1.37 2.51, 1.37 2.51, 1.37 2.51 M1.37 2.51 C1.37 2.51, 1.37 2.51, 1.37 2.51 M1.11 8.91 C2.9 7, 4.74 4.34, 8.32 0.61 M1.11 8.91 C2.56 7.27, 4.26 5, 8.32 0.61 M3.47 12.29 C6.15 9.2, 8.79 5.32, 11.34 3.23 M3.47 12.29 C5.56 10.46, 7.24 7.93, 11.34 3.23 M7.8 13.41 C8.62 12.23, 9.81 10.53, 13.05 7.37 M7.8 13.41 C9.89 10.99, 11.8 8.96, 13.05 7.37 M2.06 11.35 C2.06 11.35, 2.06 11.35, 2.06 11.35 M2.06 11.35 C2.06 11.35, 2.06 11.35, 2.06 11.35 M9.21 12.27 C5.54 9.95, 3.31 7.15, 0.91 5.05 M9.21 12.27 C6.19 9.52, 2.67 6.46, 0.91 5.05 M12.59 9.9 C9.51 6.95, 5.79 4.25, 2.78 1.38 M12.59 9.9 C8.96 6.38, 5.06 3.43, 2.78 1.38 M12.95 4.92 C11.01 3.05, 9.08 1.96, 7.67 0.32 M12.95 4.92 C11.57 3.88, 10.17 2.52, 7.67 0.32" stroke="#15aabf" stroke-width="0.5" fill="none"></path><path d="M4.63 0.51 C5.79 0.07, 7.93 -0.32, 9.23 0.29 C10.54 0.89, 11.86 2.71, 12.47 4.12 C13.08 5.53, 13.28 7.35, 12.89 8.76 C12.51 10.17, 11.4 11.78, 10.17 12.57 C8.94 13.36, 6.89 13.71, 5.51 13.48 C4.13 13.26, 2.75 12.22, 1.9 11.21 C1.05 10.2, 0.54 8.83, 0.44 7.4 C0.34 5.97, 0.38 3.8, 1.29 2.61 C2.19 1.42, 5.14 0.71, 5.86 0.27 C6.59 -0.18, 5.69 -0.06, 5.63 -0.05 M5.92 -0.33 C7.21 -0.63, 8.8 -0.18, 9.96 0.61 C11.13 1.41, 12.32 2.94, 12.92 4.44 C13.52 5.95, 14.16 8.29, 13.56 9.65 C12.96 11, 10.59 11.95, 9.33 12.59 C8.06 13.23, 7.23 13.78, 5.98 13.51 C4.72 13.24, 2.67 12.06, 1.8 10.99 C0.92 9.93, 0.88 8.59, 0.73 7.14 C0.59 5.68, 0.13 3.37, 0.94 2.26 C1.74 1.14, 4.88 0.8, 5.57 0.45 C6.27 0.09, 5.06 0.19, 5.11 0.12" stroke="#000000" stroke-width="1" fill="none"></path></g><g stroke-linecap="round" transform="translate(70.3673601497785 210) rotate(0 6.6666666666667425 6.6666666666667425)"><path d="M2.43 2.11 C2.43 2.11, 2.43 2.11, 2.43 2.11 M2.43 2.11 C2.43 2.11, 2.43 2.11, 2.43 2.11 M1.51 9.27 C3.14 7, 4.94 4.95, 8.73 0.96 M1.51 9.27 C3.48 6.73, 5.9 4.55, 8.73 0.96 M3.88 12.65 C5.66 9.77, 7.86 7.22, 11.75 3.59 M3.88 12.65 C6.04 10, 7.89 7.98, 11.75 3.59 M8.21 13.76 C9.36 11.99, 11.36 10.15, 12.8 8.48 M8.21 13.76 C9.28 12.62, 10.6 11.05, 12.8 8.48 M1.4 10.59 C1.4 10.59, 1.4 10.59, 1.4 10.59 M1.4 10.59 C1.4 10.59, 1.4 10.59, 1.4 10.59 M9.3 12.16 C6.55 9.73, 3.17 6.73, 1 4.94 M9.3 12.16 C7.2 10.25, 5.61 8.67, 1 4.94 M12.68 9.8 C9.35 7.18, 5.93 3.06, 2.87 1.27 M12.68 9.8 C9.68 7.25, 7.03 4.6, 2.87 1.27 M13.04 4.81 C11.06 3.6, 9.27 1.37, 6.25 -1.09 M13.04 4.81 C10.85 2.97, 8.99 1.34, 6.25 -1.09" stroke="#15aabf" stroke-width="0.5" fill="none"></path><path d="M5.72 -0.39 C7.1 -0.61, 9.01 0.42, 10.22 1.35 C11.42 2.28, 12.56 3.77, 12.94 5.18 C13.32 6.6, 13.15 8.58, 12.5 9.86 C11.85 11.15, 10.29 12.38, 9.04 12.91 C7.78 13.44, 6.21 13.4, 4.97 13.04 C3.73 12.69, 2.44 11.96, 1.61 10.77 C0.79 9.59, -0.13 7.4, 0.01 5.95 C0.16 4.5, 1.42 3.11, 2.47 2.07 C3.52 1.04, 5.63 0.14, 6.31 -0.26 C7 -0.66, 6.64 -0.48, 6.6 -0.32 M5.85 -0.32 C7.14 -0.49, 9.06 0.12, 10.38 1.08 C11.7 2.04, 13.47 4.03, 13.77 5.44 C14.07 6.84, 12.8 8.24, 12.19 9.5 C11.59 10.76, 11.3 12.36, 10.16 12.99 C9.02 13.62, 6.7 13.58, 5.34 13.28 C3.97 12.98, 2.98 12.35, 1.97 11.16 C0.97 9.98, -0.68 7.61, -0.7 6.14 C-0.73 4.68, 0.8 3.4, 1.82 2.37 C2.85 1.34, 4.73 0.43, 5.46 -0.06 C6.18 -0.54, 5.95 -0.66, 6.16 -0.54" stroke="#000000" stroke-width="1" fill="none"></path></g><g stroke-linecap="round" transform="translate(110.3673601497785 230) rotate(0 6.6666666666667425 6.6666666666667425)"><path d="M3.48 0.37 C3.48 0.37, 3.48 0.37, 3.48 0.37 M3.48 0.37 C3.48 0.37, 3.48 0.37, 3.48 0.37 M1.25 9.04 C3.5 6.11, 6.44 2.64, 8.47 0.73 M1.25 9.04 C4.29 5.91, 6.88 2.45, 8.47 0.73 M3.61 12.42 C6.07 8.74, 9.17 6.36, 12.14 2.6 M3.61 12.42 C6.68 8.92, 10.27 4.52, 12.14 2.6 M7.94 13.53 C10.14 11.05, 11.42 9.41, 13.19 7.49 M7.94 13.53 C9.37 11.91, 10.56 10.67, 13.19 7.49 M3.62 12.6 C3.62 12.6, 3.62 12.6, 3.62 12.6 M3.62 12.6 C3.62 12.6, 3.62 12.6, 3.62 12.6 M9.26 12.21 C6.56 9.82, 2.59 7.17, 0.96 4.99 M9.26 12.21 C6.83 9.73, 4.22 7.81, 0.96 4.99 M12.64 9.85 C10.03 6.74, 6.37 4.63, 2.83 1.32 M12.64 9.85 C10.72 7.92, 8.33 6.11, 2.83 1.32 M13 4.86 C11.63 3.58, 10.59 2.64, 7.72 0.27 M13 4.86 C11.06 3.18, 8.93 1.58, 7.72 0.27" stroke="#15aabf" stroke-width="0.5" fill="none"></path><path d="M7.44 0.21 C8.83 0.45, 10.59 1.41, 11.54 2.53 C12.5 3.64, 13.16 5.5, 13.14 6.93 C13.12 8.35, 12.28 10.03, 11.41 11.07 C10.55 12.11, 9.23 12.87, 7.97 13.16 C6.71 13.45, 5.09 13.5, 3.84 12.79 C2.58 12.09, 0.92 10.29, 0.42 8.93 C-0.08 7.56, 0.4 5.99, 0.86 4.61 C1.33 3.24, 2.05 1.5, 3.22 0.67 C4.39 -0.15, 7.13 -0.28, 7.87 -0.35 C8.61 -0.41, 7.7 0.08, 7.65 0.29 M5.71 -0.03 C7.18 -0.14, 9.78 0.8, 10.91 1.59 C12.03 2.38, 12.05 3.39, 12.47 4.71 C12.9 6.03, 13.85 8.16, 13.46 9.5 C13.06 10.83, 11.35 12.01, 10.1 12.73 C8.86 13.44, 7.56 14.13, 5.98 13.8 C4.41 13.47, 1.68 11.91, 0.67 10.74 C-0.34 9.57, -0.16 8.22, -0.08 6.78 C0 5.33, 0.17 3.33, 1.17 2.09 C2.16 0.86, 5.02 -0.33, 5.89 -0.64 C6.76 -0.96, 6.48 -0.08, 6.41 0.2" stroke="#000000" stroke-width="1" fill="none"></path></g><g stroke-linecap="round" transform="translate(150.3673601497785 230) rotate(0 6.6666666666667425 6.6666666666667425)"><path d="M1.2 2.37 C1.2 2.37, 1.2 2.37, 1.2 2.37 M1.2 2.37 C1.2 2.37, 1.2 2.37, 1.2 2.37 M0.94 8.77 C2.82 6.22, 5.24 4.1, 7.5 1.22 M0.94 8.77 C2.58 6.7, 4.44 4.62, 7.5 1.22 M3.3 12.15 C5.06 10.44, 7.67 7.93, 11.17 3.09 M3.3 12.15 C5.32 9.6, 7.4 7.35, 11.17 3.09 M7.63 13.26 C8.79 11.76, 10.17 9.94, 12.88 7.22 M7.63 13.26 C9.7 11.04, 11.84 8.52, 12.88 7.22 M2.16 11.23 C2.16 11.23, 2.16 11.23, 2.16 11.23 M2.16 11.23 C2.16 11.23, 2.16 11.23, 2.16 11.23 M10.07 12.8 C6.24 10.27, 3.35 6.57, 1.02 4.93 M10.07 12.8 C8.36 11.34, 6.31 9.63, 1.02 4.93 M12.7 9.78 C8.9 6.65, 4.62 3.07, 2.88 1.25 M12.7 9.78 C9.54 7.06, 6.42 4.38, 2.88 1.25 M12.3 4.14 C10.59 2.52, 9.09 0.92, 7.77 0.2 M12.3 4.14 C11 3.26, 10.07 2.07, 7.77 0.2" stroke="#15aabf" stroke-width="0.5" fill="none"></path><path d="M5.14 0.35 C6.47 0.03, 8.42 0.47, 9.64 1.15 C10.85 1.82, 11.87 3.13, 12.44 4.39 C13.01 5.65, 13.36 7.33, 13.06 8.7 C12.75 10.08, 11.82 11.91, 10.59 12.65 C9.37 13.39, 7.09 13.39, 5.69 13.16 C4.29 12.93, 3.14 12.34, 2.18 11.24 C1.23 10.15, 0.09 8.13, -0.03 6.6 C-0.16 5.07, 0.58 3.16, 1.45 2.08 C2.32 1, 4.5 0.42, 5.17 0.14 C5.83 -0.14, 5.43 0.3, 5.45 0.39 M6.56 0.6 C7.82 0.39, 8.59 0.43, 9.78 1.17 C10.96 1.91, 13.11 3.67, 13.67 5.05 C14.23 6.43, 13.67 8.09, 13.13 9.45 C12.58 10.82, 11.85 12.62, 10.4 13.24 C8.95 13.86, 5.95 13.52, 4.42 13.15 C2.89 12.78, 2.07 12.19, 1.24 11.03 C0.41 9.87, -0.67 7.81, -0.55 6.2 C-0.44 4.6, 0.75 2.42, 1.93 1.4 C3.11 0.37, 5.91 0.21, 6.51 0.05 C7.1 -0.11, 5.58 0.45, 5.51 0.45" stroke="#000000" stroke-width="1" fill="none"></path></g><g stroke-linecap="round" transform="translate(170.3673601497785 190) rotate(0 6.6666666666667425 6.6666666666667425)"><path d="M2.69 1.01 C2.69 1.01, 2.69 1.01, 2.69 1.01 M2.69 1.01 C2.69 1.01, 2.69 1.01, 2.69 1.01 M0.46 9.67 C3.5 6.52, 5.19 4.39, 8.33 0.62 M0.46 9.67 C3.27 6.37, 5.69 3.27, 8.33 0.62 M3.48 12.3 C5.88 10.27, 6.89 7.56, 11.35 3.24 M3.48 12.3 C6.71 8.52, 9.56 5.46, 11.35 3.24 M7.81 13.41 C8.79 11.85, 10.66 10.91, 13.71 6.62 M7.81 13.41 C9.36 11.71, 10.82 9.81, 13.71 6.62 M4.59 13.01 C4.59 13.01, 4.59 13.01, 4.59 13.01 M4.59 13.01 C4.59 13.01, 4.59 13.01, 4.59 13.01 M9.48 11.96 C6.4 8.85, 2.56 6.81, 0.42 4.08 M9.48 11.96 C7.32 10.23, 5.32 8.43, 0.42 4.08 M13.61 10.25 C10.56 7.94, 8.76 6.36, 3.05 1.07 M13.61 10.25 C10.56 7.62, 8.26 5.16, 3.05 1.07 M13.97 5.26 C12.75 3.58, 10.68 2.59, 7.18 -0.64 M13.97 5.26 C11.94 3.31, 9.77 1.39, 7.18 -0.64" stroke="#15aabf" stroke-width="0.5" fill="none"></path><path d="M6.9 0.36 C8.22 0.36, 9.78 1.12, 10.85 2.03 C11.93 2.95, 13.05 4.43, 13.35 5.87 C13.65 7.31, 13.44 9.49, 12.64 10.67 C11.84 11.85, 9.89 12.59, 8.53 12.96 C7.17 13.33, 5.8 13.51, 4.49 12.92 C3.17 12.32, 1.37 10.74, 0.66 9.36 C-0.06 7.98, -0.09 5.98, 0.2 4.64 C0.5 3.3, 1.27 2.07, 2.41 1.33 C3.55 0.59, 6.26 0.41, 7.04 0.2 C7.82 -0.01, 7.11 -0.02, 7.1 0.06 M5.93 0.08 C7.28 -0.09, 10.16 0.84, 11.42 1.74 C12.69 2.64, 13.22 4.03, 13.53 5.48 C13.84 6.93, 14.12 9.23, 13.27 10.45 C12.41 11.68, 9.87 12.37, 8.4 12.85 C6.94 13.34, 5.81 13.83, 4.48 13.37 C3.15 12.9, 1.14 11.47, 0.43 10.07 C-0.29 8.68, -0.21 6.39, 0.19 5 C0.6 3.6, 1.88 2.47, 2.87 1.69 C3.85 0.9, 5.47 0.64, 6.09 0.28 C6.71 -0.09, 6.58 -0.49, 6.6 -0.5" stroke="#000000" stroke-width="1" fill="none"></path></g><g stroke-linecap="round" transform="translate(210.3673601497785 150) rotate(0 6.6666666666667425 6.6666666666667425)"><path d="M2.87 1.17 C2.87 1.17, 2.87 1.17, 2.87 1.17 M2.87 1.17 C2.87 1.17, 2.87 1.17, 2.87 1.17 M1.3 9.08 C2.71 7.54, 4.83 5.14, 8.51 0.78 M1.3 9.08 C3.07 6.68, 5 4.54, 8.51 0.78 M3.66 12.46 C6.48 8.28, 10.62 5.14, 12.19 2.65 M3.66 12.46 C5.35 10.67, 6.98 8.12, 12.19 2.65 M7.99 13.57 C10.33 11.68, 11.56 9.25, 13.9 6.78 M7.99 13.57 C10.26 10.84, 12.57 8.44, 13.9 6.78 M3.76 12.44 C3.76 12.44, 3.76 12.44, 3.76 12.44 M3.76 12.44 C3.76 12.44, 3.76 12.44, 3.76 12.44 M9.4 12.05 C5.53 9.52, 2.41 6.67, 0.35 4.18 M9.4 12.05 C6.27 9.39, 2.46 6.2, 0.35 4.18 M12.78 9.69 C9.69 7.25, 6.26 3.91, 2.97 1.16 M12.78 9.69 C10.39 7.18, 7.22 5.01, 2.97 1.16 M14.65 6.01 C12.43 4.3, 10.79 2.1, 7.1 -0.55 M14.65 6.01 C11.9 3.39, 8.65 1, 7.1 -0.55" stroke="#15aabf" stroke-width="0.5" fill="none"></path><path d="M6.96 0.23 C8.36 0.22, 10.4 0.94, 11.53 1.99 C12.66 3.04, 13.66 5.1, 13.74 6.52 C13.83 7.94, 12.87 9.36, 12.04 10.49 C11.21 11.62, 10.15 12.96, 8.76 13.28 C7.37 13.6, 5.06 13.12, 3.7 12.39 C2.34 11.66, 1.21 10.17, 0.59 8.92 C-0.04 7.66, -0.4 6.12, -0.04 4.85 C0.32 3.58, 1.52 2.12, 2.75 1.31 C3.98 0.49, 6.53 0.14, 7.33 -0.05 C8.13 -0.23, 7.54 -0.01, 7.56 0.19 M8.52 0.42 C10.01 0.6, 11.23 1.44, 12.16 2.6 C13.08 3.76, 14.26 5.96, 14.06 7.36 C13.87 8.77, 12.07 9.96, 11 11 C9.94 12.04, 9.05 13.4, 7.66 13.62 C6.28 13.83, 3.9 13.22, 2.7 12.31 C1.51 11.4, 0.77 9.5, 0.5 8.17 C0.22 6.84, 0.64 5.49, 1.06 4.32 C1.48 3.14, 1.85 1.93, 3.01 1.13 C4.17 0.32, 7.26 -0.3, 8.02 -0.52 C8.78 -0.74, 7.73 -0.4, 7.59 -0.21" stroke="#000000" stroke-width="1" fill="none"></path></g><g stroke-linecap="round" transform="translate(250.3673601497785 130) rotate(0 6.6666666666667425 6.6666666666667425)"><path d="M2.79 1.1 C2.79 1.1, 2.79 1.1, 2.79 1.1 M2.79 1.1 C2.79 1.1, 2.79 1.1, 2.79 1.1 M0.56 9.76 C2.77 7.38, 4.27 5.49, 8.43 0.71 M0.56 9.76 C2.21 7.61, 4.44 5.88, 8.43 0.71 M3.58 12.39 C6.96 9.31, 8.55 6.4, 12.11 2.57 M3.58 12.39 C5.13 10.06, 7.36 7.92, 12.11 2.57 M7.91 13.5 C9.21 11.71, 11.33 10.06, 13.81 6.71 M7.91 13.5 C9.87 11.41, 11.89 9, 13.81 6.71 M3.05 11.73 C3.05 11.73, 3.05 11.73, 3.05 11.73 M3.05 11.73 C3.05 11.73, 3.05 11.73, 3.05 11.73 M9.45 11.99 C6.96 10.55, 5.56 8.34, 0.39 4.12 M9.45 11.99 C6.05 9.27, 3.16 6.27, 0.39 4.12 M12.83 9.63 C9.93 7.08, 7.29 4.53, 3.02 1.1 M12.83 9.63 C10.08 7.45, 7.71 5.53, 3.02 1.1 M13.19 4.64 C12.09 3.3, 11.11 2.79, 7.91 0.05 M13.19 4.64 C11.66 3.46, 10.19 2.17, 7.91 0.05" stroke="#15aabf" stroke-width="0.5" fill="none"></path><path d="M7.89 0.05 C9.38 0.22, 11.3 1.61, 12.2 2.7 C13.11 3.78, 13.31 5.17, 13.32 6.57 C13.33 7.97, 13.19 10.03, 12.26 11.1 C11.34 12.16, 9.27 12.82, 7.78 12.97 C6.29 13.12, 4.62 12.65, 3.34 11.98 C2.06 11.32, 0.62 10.21, 0.1 8.97 C-0.43 7.73, -0.29 5.92, 0.21 4.55 C0.71 3.19, 1.8 1.52, 3.07 0.78 C4.34 0.04, 6.97 0.11, 7.82 0.11 C8.67 0.11, 8.11 0.73, 8.19 0.78 M7.17 0.16 C8.55 0.16, 10.92 1.37, 11.81 2.29 C12.71 3.21, 12.46 4.3, 12.54 5.67 C12.61 7.04, 12.99 9.31, 12.27 10.52 C11.55 11.72, 9.54 12.62, 8.22 12.9 C6.9 13.17, 5.48 12.68, 4.35 12.17 C3.22 11.66, 2.21 10.95, 1.44 9.86 C0.67 8.76, -0.45 7.12, -0.25 5.61 C-0.05 4.11, 1.5 1.83, 2.63 0.82 C3.77 -0.19, 5.96 -0.31, 6.55 -0.45 C7.14 -0.59, 6.22 -0.13, 6.18 -0.03" stroke="#000000" stroke-width="1" fill="none"></path></g><g stroke-linecap="round" transform="translate(270.3673601497785 70) rotate(0 6.6666666666667425 6.6666666666667425)"><path d="M2.73 1.05 C2.73 1.05, 2.73 1.05, 2.73 1.05 M2.73 1.05 C2.73 1.05, 2.73 1.05, 2.73 1.05 M0.5 9.71 C3.18 6.61, 5.82 2.74, 8.37 0.65 M0.5 9.71 C2.59 7.88, 4.26 5.34, 8.37 0.65 M3.52 12.33 C4.84 10.42, 6.79 7.66, 12.05 2.52 M3.52 12.33 C6.91 8.4, 10.02 5.1, 12.05 2.52 M8.5 12.69 C10.73 10.63, 12.35 8.4, 13.75 6.66 M8.5 12.69 C9.95 11.07, 11.15 9.58, 13.75 6.66 M3.51 12.73 C3.51 12.73, 3.51 12.73, 3.51 12.73 M3.51 12.73 C3.51 12.73, 3.51 12.73, 3.51 12.73 M9.15 12.33 C6.31 9.6, 2.88 7.12, 0.1 4.46 M9.15 12.33 C5.8 9.08, 2.2 6.36, 0.1 4.46 M12.53 9.97 C8.92 6.5, 5.34 4.48, 2.72 1.44 M12.53 9.97 C9.96 8.05, 7.37 5.52, 2.72 1.44 M14.4 6.3 C12.52 4.58, 9.61 2.64, 6.85 -0.26 M14.4 6.3 C12.19 4.55, 10.12 2.77, 6.85 -0.26" stroke="#15aabf" stroke-width="0.5" fill="none"></path><path d="M7.73 0.34 C9.07 0.38, 10.39 0.9, 11.41 1.89 C12.42 2.88, 13.7 4.88, 13.81 6.28 C13.91 7.68, 12.97 9.21, 12.06 10.27 C11.15 11.34, 9.78 12.26, 8.36 12.67 C6.93 13.07, 4.82 13.23, 3.5 12.72 C2.17 12.21, 1 10.93, 0.41 9.61 C-0.18 8.28, -0.4 6.19, -0.03 4.78 C0.34 3.37, 1.41 1.85, 2.65 1.14 C3.89 0.42, 6.51 0.72, 7.39 0.5 C8.28 0.28, 7.95 -0.27, 7.95 -0.16 M8.08 0.66 C9.26 0.68, 9.87 1.03, 10.73 2.01 C11.59 3, 13.1 5.14, 13.23 6.55 C13.36 7.96, 12.31 9.5, 11.51 10.48 C10.71 11.46, 9.61 12.06, 8.42 12.43 C7.23 12.79, 5.76 13.13, 4.39 12.67 C3.02 12.21, 0.87 11.08, 0.2 9.67 C-0.47 8.26, -0.03 5.71, 0.37 4.21 C0.78 2.72, 1.58 1.42, 2.63 0.7 C3.69 -0.03, 5.99 0.04, 6.7 -0.13 C7.4 -0.3, 6.74 -0.35, 6.87 -0.33" stroke="#000000" stroke-width="1" fill="none"></path></g><g stroke-linecap="round" transform="translate(310.3673601497785 90) rotate(0 6.6666666666667425 6.6666666666667425)"><path d="M2.3 2 C2.3 2, 2.3 2, 2.3 2 M2.3 2 C2.3 2, 2.3 2, 2.3 2 M0.73 9.91 C2.51 7.03, 4.71 4.48, 8.6 0.85 M0.73 9.91 C2.89 7.26, 4.74 5.24, 8.6 0.85 M3.75 12.53 C5.88 9.25, 9.61 5.83, 12.27 2.72 M3.75 12.53 C5.74 10.42, 8.18 7.51, 12.27 2.72 M8.73 12.89 C10.16 11.32, 11.27 9.81, 13.33 7.61 M8.73 12.89 C10.31 11.02, 12.04 9.38, 13.33 7.61 M0.62 9.96 C0.62 9.96, 0.62 9.96, 0.62 9.96 M0.62 9.96 C0.62 9.96, 0.62 9.96, 0.62 9.96 M9.28 12.19 C6.2 9.78, 3.04 5.97, 0.22 4.32 M9.28 12.19 C6.51 9.84, 4.06 7.39, 0.22 4.32 M12.66 9.83 C9.79 8.07, 7.21 4.85, 2.85 1.3 M12.66 9.83 C9.49 7.16, 6.8 4.82, 2.85 1.3 M13.02 4.84 C11.59 4.07, 10.31 2.43, 6.98 -0.41 M13.02 4.84 C10.86 3.11, 8.92 1.14, 6.98 -0.41" stroke="#15aabf" stroke-width="0.5" fill="none"></path><path d="M6.47 -0.1 C7.83 -0.25, 10.18 0.72, 11.3 1.58 C12.42 2.44, 12.95 3.76, 13.16 5.06 C13.37 6.36, 13.27 8.08, 12.55 9.38 C11.82 10.69, 10.18 12.27, 8.82 12.9 C7.45 13.53, 5.72 13.64, 4.37 13.16 C3.02 12.69, 1.47 11.3, 0.72 10.05 C-0.04 8.8, -0.41 6.97, -0.17 5.65 C0.08 4.33, 0.96 3.14, 2.18 2.14 C3.41 1.13, 6.34 -0.1, 7.17 -0.36 C8 -0.62, 7.18 0.35, 7.15 0.56 M6.3 0 C7.52 -0.05, 10.06 1.2, 11.13 2.16 C12.2 3.13, 12.51 4.53, 12.72 5.77 C12.93 7.01, 12.96 8.38, 12.38 9.6 C11.8 10.81, 10.69 12.47, 9.24 13.05 C7.79 13.63, 5.07 13.74, 3.67 13.07 C2.27 12.41, 1.48 10.45, 0.84 9.05 C0.21 7.66, -0.31 6.02, -0.12 4.71 C0.08 3.4, 0.9 2.05, 2.01 1.18 C3.12 0.31, 5.69 -0.2, 6.56 -0.49 C7.43 -0.78, 7.18 -0.84, 7.21 -0.58" stroke="#000000" stroke-width="1" fill="none"></path></g><g stroke-linecap="round" transform="translate(350.3673601497785 150) rotate(0 6.6666666666667425 6.6666666666667425)"><path d="M3.65 0.53 C3.65 0.53, 3.65 0.53, 3.65 0.53 M3.65 0.53 C3.65 0.53, 3.65 0.53, 3.65 0.53 M0.77 9.94 C3.04 6.55, 5.9 4.35, 8.64 0.89 M0.77 9.94 C3.6 6.72, 6.91 2.66, 8.64 0.89 M3.79 12.57 C7.35 8.54, 9.44 5.87, 12.32 2.76 M3.79 12.57 C6.11 9.94, 8.04 7.92, 12.32 2.76 M8.12 13.68 C9.24 12.28, 10.79 10.95, 12.06 9.15 M8.12 13.68 C9.25 12.64, 10.28 11.25, 12.06 9.15 M3.53 12.7 C3.53 12.7, 3.53 12.7, 3.53 12.7 M3.53 12.7 C3.53 12.7, 3.53 12.7, 3.53 12.7 M9.18 12.31 C6.77 9.44, 3.39 7.49, 0.12 4.44 M9.18 12.31 C7.4 10.53, 5.2 8.86, 0.12 4.44 M11.8 9.29 C9.46 7.09, 7.67 5.49, 2.74 1.42 M11.8 9.29 C8.48 6.41, 4.82 3.67, 2.74 1.42 M13.67 5.61 C11.07 3.26, 8.86 1.02, 6.88 -0.29 M13.67 5.61 C11.53 3.6, 9.53 2.11, 6.88 -0.29" stroke="#15aabf" stroke-width="0.5" fill="none"></path><path d="M8.19 0.22 C9.54 0.32, 10.79 1.04, 11.65 2.02 C12.51 3, 13.36 4.6, 13.35 6.08 C13.33 7.56, 12.48 9.67, 11.55 10.88 C10.62 12.1, 9.15 13.13, 7.76 13.38 C6.36 13.63, 4.43 13.12, 3.18 12.39 C1.92 11.67, 0.69 10.27, 0.21 9.03 C-0.27 7.79, -0.26 6.37, 0.3 4.96 C0.87 3.56, 2.29 1.33, 3.59 0.6 C4.89 -0.14, 7.28 0.56, 8.11 0.56 C8.94 0.56, 8.6 0.46, 8.58 0.58 M7.95 0.51 C9.32 0.7, 10.43 1.52, 11.35 2.46 C12.26 3.41, 13.3 4.74, 13.45 6.18 C13.6 7.63, 13.3 9.89, 12.26 11.12 C11.22 12.35, 8.72 13.44, 7.22 13.54 C5.72 13.63, 4.46 12.57, 3.27 11.69 C2.07 10.82, 0.61 9.57, 0.04 8.29 C-0.53 7.01, -0.67 5.36, -0.17 4.02 C0.34 2.69, 1.66 1.05, 3.07 0.29 C4.47 -0.48, 7.45 -0.64, 8.24 -0.58 C9.03 -0.52, 7.91 0.47, 7.81 0.66" stroke="#000000" stroke-width="1" fill="none"></path></g><g stroke-linecap="round" transform="translate(390.3673601497785 130) rotate(0 6.6666666666667425 6.6666666666667425)"><path d="M2.33 2.02 C2.33 2.02, 2.33 2.02, 2.33 2.02 M2.33 2.02 C2.33 2.02, 2.33 2.02, 2.33 2.02 M0.75 9.93 C2.51 8.22, 5.12 5.72, 8.63 0.87 M0.75 9.93 C2.77 7.38, 4.85 5.14, 8.63 0.87 M3.77 12.55 C5.66 10.12, 7.9 7.15, 12.3 2.74 M3.77 12.55 C7.13 8.95, 10.61 4.85, 12.3 2.74 M8.76 12.92 C10.31 11.54, 11.38 9.75, 13.35 7.63 M8.76 12.92 C10.15 11.33, 11.35 10.22, 13.35 7.63 M1.15 10.87 C1.15 10.87, 1.15 10.87, 1.15 10.87 M1.15 10.87 C1.15 10.87, 1.15 10.87, 1.15 10.87 M9.06 12.44 C5.85 9.79, 2.23 6.76, 0.76 5.22 M9.06 12.44 C6.39 10.14, 3.75 7.87, 0.76 5.22 M12.44 10.08 C8.74 6.56, 5.48 3.1, 2.63 1.55 M12.44 10.08 C9.63 8.18, 7.6 5.6, 2.63 1.55 M12.8 5.09 C10.65 2.81, 8.24 0.8, 6.76 -0.16 M12.8 5.09 C10.95 3.55, 9.04 1.77, 6.76 -0.16" stroke="#15aabf" stroke-width="0.5" fill="none"></path><path d="M6.28 -0.26 C7.56 -0.51, 9.6 -0.02, 10.7 0.89 C11.79 1.8, 12.57 3.7, 12.86 5.2 C13.15 6.7, 13.05 8.62, 12.41 9.87 C11.77 11.12, 10.32 12.17, 9 12.69 C7.68 13.22, 5.81 13.33, 4.48 13 C3.15 12.68, 1.69 12, 1.02 10.75 C0.34 9.5, 0.23 6.91, 0.42 5.49 C0.61 4.06, 1.1 3.08, 2.17 2.2 C3.24 1.32, 6.02 0.49, 6.83 0.22 C7.65 -0.04, 7.01 0.63, 7.04 0.63 M6.08 -0.09 C7.47 -0.36, 9.76 -0.09, 11.06 0.85 C12.36 1.78, 13.69 3.93, 13.86 5.49 C14.02 7.06, 12.86 9.12, 12.06 10.26 C11.27 11.39, 10.41 11.92, 9.08 12.29 C7.76 12.66, 5.59 12.89, 4.11 12.48 C2.64 12.08, 1 11.1, 0.25 9.85 C-0.49 8.61, -0.75 6.53, -0.36 5.03 C0.03 3.53, 1.43 1.62, 2.57 0.85 C3.7 0.08, 5.81 0.55, 6.44 0.39 C7.08 0.24, 6.26 -0.06, 6.38 -0.08" stroke="#000000" stroke-width="1" fill="none"></path></g><g stroke-linecap="round" transform="translate(410.3673601497785 90) rotate(0 6.6666666666667425 6.6666666666667425)"><path d="M3.08 1.35 C3.08 1.35, 3.08 1.35, 3.08 1.35 M3.08 1.35 C3.08 1.35, 3.08 1.35, 3.08 1.35 M1.51 9.26 C3.71 7.4, 4.63 4.92, 8.72 0.96 M1.51 9.26 C4.47 5.8, 7.08 3, 8.72 0.96 M3.87 12.64 C5.18 10.56, 7.67 9.3, 11.74 3.58 M3.87 12.64 C5.94 10.37, 7.89 7.84, 11.74 3.58 M8.86 13 C9.97 11.56, 11.26 10.35, 12.79 8.47 M8.86 13 C10.42 11.47, 11.88 9.76, 12.79 8.47 M4.19 13.47 C4.19 13.47, 4.19 13.47, 4.19 13.47 M4.19 13.47 C4.19 13.47, 4.19 13.47, 4.19 13.47 M9.08 12.42 C6.68 10.6, 5.26 9.36, 0.78 5.2 M9.08 12.42 C6.68 10.35, 4.88 8.42, 0.78 5.2 M12.46 10.06 C10.69 7.62, 7.71 6.19, 2.65 1.53 M12.46 10.06 C9.52 7.23, 6.38 4.47, 2.65 1.53 M13.57 5.72 C11.9 3.91, 10.22 2.64, 6.78 -0.18 M13.57 5.72 C12.17 4.52, 10.45 3.25, 6.78 -0.18" stroke="#15aabf" stroke-width="0.5" fill="none"></path><path d="M7.15 -0.44 C8.47 -0.38, 10.01 0.81, 11 1.91 C11.99 3, 12.95 4.75, 13.1 6.15 C13.26 7.54, 12.73 9.14, 11.92 10.29 C11.11 11.44, 9.6 12.55, 8.26 13.04 C6.92 13.52, 5.1 13.84, 3.89 13.21 C2.69 12.57, 1.65 10.51, 1.04 9.22 C0.44 7.93, -0.07 6.75, 0.25 5.46 C0.57 4.17, 1.73 2.31, 2.96 1.49 C4.18 0.67, 6.73 0.83, 7.61 0.54 C8.49 0.25, 8.29 -0.26, 8.26 -0.24 M7.61 -0.65 C9.17 -0.55, 11.29 0.92, 12.18 2.13 C13.07 3.34, 12.95 5.28, 12.94 6.6 C12.93 7.92, 12.95 9.03, 12.1 10.05 C11.26 11.07, 9.39 12.31, 7.87 12.71 C6.35 13.11, 4.28 13.1, 2.98 12.44 C1.68 11.78, 0.48 10.17, 0.07 8.76 C-0.35 7.35, 0.03 5.2, 0.5 3.98 C0.96 2.77, 1.72 2.15, 2.84 1.46 C3.96 0.77, 6.37 0.11, 7.22 -0.16 C8.07 -0.44, 7.92 -0.27, 7.94 -0.21" stroke="#000000" stroke-width="1" fill="none"></path></g><g stroke-linecap="round" transform="translate(450.3673601497785 130) rotate(0 6.6666666666667425 6.6666666666667425)"><path d="M1.71 2.82 C1.71 2.82, 1.71 2.82, 1.71 2.82 M1.71 2.82 C1.71 2.82, 1.71 2.82, 1.71 2.82 M1.45 9.21 C3.84 5.68, 7.35 3.02, 8.67 0.91 M1.45 9.21 C2.88 7.7, 4.26 5.55, 8.67 0.91 M3.82 12.59 C6.93 10.06, 8.58 6.83, 11.69 3.54 M3.82 12.59 C6.84 8.95, 9.92 5.74, 11.69 3.54 M8.8 12.95 C10.15 11.56, 11.89 9.96, 12.74 8.42 M8.8 12.95 C9.76 12.06, 10.59 10.84, 12.74 8.42 M1.14 10.89 C1.14 10.89, 1.14 10.89, 1.14 10.89 M1.14 10.89 C1.14 10.89, 1.14 10.89, 1.14 10.89 M9.8 13.12 C6.95 10.87, 3.78 7.79, 0.74 5.24 M9.8 13.12 C7.59 10.8, 4.67 8.8, 0.74 5.24 M12.42 10.1 C9.54 7.87, 7.4 5.02, 2.61 1.57 M12.42 10.1 C8.85 6.69, 4.62 3.58, 2.61 1.57 M12.78 5.11 C11.27 3.62, 9.23 2.48, 5.99 -0.79 M12.78 5.11 C10.08 2.98, 7.5 0.63, 5.99 -0.79" stroke="#15aabf" stroke-width="0.5" fill="none"></path><path d="M5.49 0.09 C6.78 -0.07, 8.84 0.47, 10.05 1.21 C11.26 1.96, 12.33 3.22, 12.75 4.54 C13.18 5.87, 13.1 7.76, 12.59 9.17 C12.08 10.59, 10.86 12.42, 9.69 13.03 C8.53 13.64, 6.98 13.13, 5.6 12.82 C4.23 12.5, 2.33 12.18, 1.43 11.14 C0.53 10.11, 0.14 8.02, 0.21 6.61 C0.28 5.19, 0.81 3.83, 1.85 2.66 C2.9 1.48, 5.73 -0.02, 6.48 -0.45 C7.22 -0.88, 6.35 -0.04, 6.34 0.08 M7.1 0.01 C8.37 0.04, 9.37 0.93, 10.41 1.71 C11.45 2.48, 13.01 3.4, 13.31 4.68 C13.62 5.96, 13.05 8.04, 12.25 9.37 C11.44 10.71, 9.84 12.18, 8.48 12.7 C7.13 13.22, 5.33 13.04, 4.12 12.5 C2.9 11.96, 1.9 10.51, 1.2 9.45 C0.49 8.38, -0.26 7.43, -0.13 6.1 C-0.01 4.77, 0.78 2.56, 1.96 1.47 C3.14 0.39, 6.19 -0.08, 6.94 -0.39 C7.68 -0.7, 6.46 -0.56, 6.4 -0.39" stroke="#000000" stroke-width="1" fill="none"></path></g><g stroke-linecap="round" transform="translate(490.3673601497785 110) rotate(0 6.6666666666667425 6.6666666666667425)"><path d="M2.08 1.81 C2.08 1.81, 2.08 1.81, 2.08 1.81 M2.08 1.81 C2.08 1.81, 2.08 1.81, 2.08 1.81 M1.16 8.96 C4.02 6.35, 5.36 3.9, 8.38 0.66 M1.16 8.96 C2.47 6.99, 4.36 5.18, 8.38 0.66 M3.52 12.34 C5.25 9.95, 8.08 7.74, 11.4 3.28 M3.52 12.34 C6.14 9.55, 8.83 6.34, 11.4 3.28 M7.85 13.45 C9.76 11.98, 10.74 10.05, 13.1 7.41 M7.85 13.45 C10.01 10.91, 12.11 8.69, 13.1 7.41 M1.99 11.43 C1.99 11.43, 1.99 11.43, 1.99 11.43 M1.99 11.43 C1.99 11.43, 1.99 11.43, 1.99 11.43 M9.14 12.35 C6.69 10.19, 4.45 8.04, 0.84 5.13 M9.14 12.35 C6.82 10.51, 4.81 8.88, 0.84 5.13 M12.52 9.99 C10.47 7.49, 8.65 6.55, 2.71 1.46 M12.52 9.99 C9.67 7.78, 6.96 5.39, 2.71 1.46 M12.88 5 C11.15 3.91, 10.38 2.72, 6.84 -0.25 M12.88 5 C10.79 3.27, 8.72 1.37, 6.84 -0.25" stroke="#15aabf" stroke-width="0.5" fill="none"></path><path d="M4.97 0.34 C6.28 -0.07, 8.16 0, 9.42 0.61 C10.69 1.23, 11.97 2.61, 12.57 4.02 C13.16 5.43, 13.3 7.76, 12.99 9.07 C12.67 10.38, 11.85 11.12, 10.67 11.9 C9.49 12.67, 7.35 13.77, 5.91 13.7 C4.46 13.62, 2.96 12.47, 2 11.44 C1.03 10.41, 0.16 9.05, 0.11 7.51 C0.07 5.96, 0.88 3.42, 1.76 2.18 C2.63 0.94, 4.69 0.46, 5.37 0.07 C6.06 -0.32, 5.85 -0.29, 5.86 -0.16 M4.73 0.45 C5.95 -0.05, 8.48 -0.45, 9.77 0.07 C11.06 0.59, 12.06 2.17, 12.5 3.56 C12.93 4.95, 12.84 7.05, 12.41 8.41 C11.97 9.77, 10.93 11.04, 9.88 11.73 C8.83 12.42, 7.48 12.58, 6.1 12.57 C4.73 12.55, 2.68 12.59, 1.62 11.64 C0.56 10.69, -0.29 8.4, -0.26 6.85 C-0.23 5.29, 0.9 3.5, 1.78 2.3 C2.67 1.1, 4.47 0, 5.05 -0.35 C5.63 -0.69, 5.31 -0.08, 5.26 0.23" stroke="#000000" stroke-width="1" fill="none"></path></g><g stroke-linecap="round" transform="translate(530.3673601497785 70) rotate(0 6.6666666666667425 6.6666666666667425)"><path d="M2.77 1.08 C2.77 1.08, 2.77 1.08, 2.77 1.08 M2.77 1.08 C2.77 1.08, 2.77 1.08, 2.77 1.08 M1.19 8.99 C2.31 7.37, 3.96 5.03, 8.41 0.69 M1.19 8.99 C4.07 5.66, 6.69 2.87, 8.41 0.69 M3.56 12.37 C7.17 9.02, 9.81 5.39, 12.08 2.55 M3.56 12.37 C5.9 9.73, 7.86 7.31, 12.08 2.55 M7.89 13.48 C9.77 11.18, 12.84 8.55, 13.79 6.69 M7.89 13.48 C10.28 10.94, 12.26 8.09, 13.79 6.69 M1.3 10.7 C1.3 10.7, 1.3 10.7, 1.3 10.7 M1.3 10.7 C1.3 10.7, 1.3 10.7, 1.3 10.7 M9.96 12.93 C6.63 9.72, 3.32 7.86, 0.9 5.06 M9.96 12.93 C7.59 11.16, 5.19 8.83, 0.9 5.06 M12.58 9.91 C10.13 7.68, 6.35 5.16, 2.77 1.38 M12.58 9.91 C9.71 7.64, 7.02 5.33, 2.77 1.38 M13.7 5.58 C12.16 4.12, 10.02 2.01, 6.91 -0.32 M13.7 5.58 C11.16 3.35, 9.09 1.68, 6.91 -0.32" stroke="#15aabf" stroke-width="0.5" fill="none"></path><path d="M6.5 -0.11 C7.85 -0.21, 9.68 0.56, 10.79 1.59 C11.91 2.62, 12.86 4.71, 13.19 6.07 C13.52 7.42, 13.47 8.51, 12.76 9.73 C12.04 10.95, 10.28 12.81, 8.9 13.38 C7.52 13.94, 5.82 13.61, 4.49 13.12 C3.17 12.62, 1.61 11.76, 0.95 10.4 C0.29 9.03, 0.28 6.42, 0.53 4.93 C0.79 3.43, 1.35 2.32, 2.46 1.44 C3.56 0.55, 6.41 -0.17, 7.16 -0.37 C7.92 -0.57, 7.11 -0.02, 6.99 0.23 M6.79 -0.64 C8.17 -0.84, 9.7 0.11, 10.67 1.11 C11.63 2.11, 12.37 3.96, 12.58 5.36 C12.8 6.75, 12.55 8.36, 11.98 9.51 C11.4 10.65, 10.44 11.58, 9.14 12.21 C7.84 12.85, 5.6 13.73, 4.17 13.32 C2.75 12.91, 1.22 11.15, 0.62 9.78 C0.02 8.41, 0.29 6.57, 0.57 5.11 C0.85 3.65, 1.28 1.89, 2.32 1.02 C3.35 0.16, 6.15 -0.05, 6.79 -0.08 C7.43 -0.11, 6.24 0.75, 6.15 0.83" stroke="#000000" stroke-width="1" fill="none"></path></g><g stroke-linecap="round"><g transform="translate(41.58958237200068 201) rotate(0 247.5 -44.7222222222224)"><path d="M0.07 -0.47 C6.44 2.42, 24.45 10.48, 37.08 16.57 C49.71 22.67, 62.69 32.86, 75.84 36.1 C89 39.33, 105.79 42.67, 116.02 35.97 C126.24 29.27, 127.24 9.46, 137.2 -4.11 C147.16 -17.68, 162.39 -35.55, 175.8 -45.43 C189.21 -55.32, 207.61 -50, 217.66 -63.4 C227.71 -76.8, 226.43 -119.18, 236.09 -125.86 C245.75 -132.53, 262.66 -117.29, 275.62 -103.45 C288.57 -89.61, 300.45 -49.39, 313.85 -42.79 C327.24 -36.19, 345.84 -53.55, 355.98 -63.85 C366.11 -74.15, 364.6 -104.49, 374.65 -104.59 C384.71 -104.69, 402.47 -68.09, 416.31 -64.46 C430.14 -60.82, 444.66 -73.22, 457.67 -82.77 C470.69 -92.33, 488.13 -115.04, 494.38 -121.79 M-1.34 -1.76 C4.99 1.34, 23.64 11.29, 36.35 17.77 C49.06 24.25, 61.63 33.91, 74.94 37.12 C88.25 40.32, 105.99 43.73, 116.21 37.01 C126.44 30.28, 126.21 10.65, 136.3 -3.25 C146.39 -17.15, 163.61 -36.2, 176.76 -46.41 C189.9 -56.62, 205.39 -51.21, 215.16 -64.49 C224.92 -77.77, 225.45 -119.43, 235.35 -126.07 C245.25 -132.7, 261.45 -118.11, 274.56 -104.31 C287.67 -90.51, 300.4 -49.6, 314.01 -43.25 C327.62 -36.9, 345.82 -55.91, 356.22 -66.21 C366.63 -76.52, 366.36 -105.75, 376.42 -105.09 C386.49 -104.42, 403.13 -65.9, 416.64 -62.21 C430.15 -58.52, 444.54 -72.98, 457.5 -82.96 C470.45 -92.94, 487.91 -115.52, 494.39 -122.12" stroke="#0b7285" stroke-width="1" fill="none"></path></g></g><mask></mask></svg>